<mxfile host="Electron" agent="Mozilla/5.0 (X11; Linux x86_64) AppleWebKit/537.36 (KHTML, like Gecko) draw.io/27.0.5 Chrome/134.0.6998.205 Electron/35.3.0 Safari/537.36" version="27.0.5" pages="12">
  <diagram name="Đăng ký" id="CSyMtuT4UzKuFPXxMD6Q">
    <mxGraphModel dx="1360" dy="843" grid="1" gridSize="10" guides="1" tooltips="1" connect="1" arrows="1" fold="1" page="1" pageScale="1" pageWidth="850" pageHeight="1100" math="0" shadow="0">
      <root>
        <mxCell id="0" />
        <mxCell id="1" parent="0" />
        <mxCell id="bSAmWvmNLgvnrRm7QgKB-43" value="User" style="shape=umlActor;verticalLabelPosition=bottom;verticalAlign=top;html=1;fontSize=14;" parent="1" vertex="1">
          <mxGeometry x="275" y="1050" width="30" height="60" as="geometry" />
        </mxCell>
        <mxCell id="bSAmWvmNLgvnrRm7QgKB-44" value="" style="endArrow=none;dashed=1;html=1;rounded=0;fontSize=14;exitX=0.113;exitY=0.994;exitDx=0;exitDy=0;exitPerimeter=0;" parent="1" edge="1" source="bSAmWvmNLgvnrRm7QgKB-51">
          <mxGeometry width="50" height="50" relative="1" as="geometry">
            <mxPoint x="290" y="1800" as="sourcePoint" />
            <mxPoint x="290" y="1138" as="targetPoint" />
          </mxGeometry>
        </mxCell>
        <mxCell id="bSAmWvmNLgvnrRm7QgKB-45" value="" style="html=1;points=[[0,0,0,0,5],[0,1,0,0,-5],[1,0,0,0,5],[1,1,0,0,-5]];perimeter=orthogonalPerimeter;outlineConnect=0;targetShapes=umlLifeline;portConstraint=eastwest;newEdgeStyle={&quot;curved&quot;:0,&quot;rounded&quot;:0};fontSize=14;" parent="1" vertex="1">
          <mxGeometry x="285" y="1148" width="10" height="632" as="geometry" />
        </mxCell>
        <mxCell id="bSAmWvmNLgvnrRm7QgKB-46" value="" style="endArrow=none;dashed=1;html=1;rounded=0;fontSize=14;exitX=0.245;exitY=0.997;exitDx=0;exitDy=0;exitPerimeter=0;" parent="1" edge="1" source="bSAmWvmNLgvnrRm7QgKB-51">
          <mxGeometry width="50" height="50" relative="1" as="geometry">
            <mxPoint x="445" y="1800" as="sourcePoint" />
            <mxPoint x="445" y="1138" as="targetPoint" />
          </mxGeometry>
        </mxCell>
        <mxCell id="bSAmWvmNLgvnrRm7QgKB-47" value="" style="html=1;points=[[0,0,0,0,5],[0,1,0,0,-5],[1,0,0,0,5],[1,1,0,0,-5]];perimeter=orthogonalPerimeter;outlineConnect=0;targetShapes=umlLifeline;portConstraint=eastwest;newEdgeStyle={&quot;curved&quot;:0,&quot;rounded&quot;:0};fontSize=14;" parent="1" vertex="1">
          <mxGeometry x="440" y="1148" width="10" height="632" as="geometry" />
        </mxCell>
        <mxCell id="bSAmWvmNLgvnrRm7QgKB-48" value="enterInfo()" style="html=1;verticalAlign=bottom;endArrow=block;curved=0;rounded=0;fontSize=14;" parent="1" source="bSAmWvmNLgvnrRm7QgKB-45" target="bSAmWvmNLgvnrRm7QgKB-47" edge="1">
          <mxGeometry width="80" relative="1" as="geometry">
            <mxPoint x="435" y="1298" as="sourcePoint" />
            <mxPoint x="515" y="1298" as="targetPoint" />
            <Array as="points">
              <mxPoint x="365" y="1178" />
            </Array>
          </mxGeometry>
        </mxCell>
        <mxCell id="bSAmWvmNLgvnrRm7QgKB-49" value="showAlert()" style="html=1;verticalAlign=bottom;endArrow=block;curved=0;rounded=0;fontSize=14;" parent="1" source="bSAmWvmNLgvnrRm7QgKB-47" target="bSAmWvmNLgvnrRm7QgKB-45" edge="1">
          <mxGeometry width="80" relative="1" as="geometry">
            <mxPoint x="435" y="1208" as="sourcePoint" />
            <mxPoint x="545" y="1158" as="targetPoint" />
            <Array as="points">
              <mxPoint x="365" y="1248" />
            </Array>
          </mxGeometry>
        </mxCell>
        <mxCell id="bSAmWvmNLgvnrRm7QgKB-50" value="checkValid()" style="html=1;align=left;spacingLeft=2;endArrow=block;rounded=0;edgeStyle=orthogonalEdgeStyle;curved=0;rounded=0;fontSize=14;" parent="1" source="bSAmWvmNLgvnrRm7QgKB-47" target="bSAmWvmNLgvnrRm7QgKB-47" edge="1">
          <mxGeometry relative="1" as="geometry">
            <mxPoint x="535" y="1148" as="sourcePoint" />
            <Array as="points">
              <mxPoint x="470" y="1188" />
              <mxPoint x="470" y="1208" />
            </Array>
            <mxPoint x="540" y="1178.0285714285715" as="targetPoint" />
          </mxGeometry>
        </mxCell>
        <mxCell id="bSAmWvmNLgvnrRm7QgKB-51" value="checkValid()" style="shape=umlFrame;whiteSpace=wrap;html=1;pointerEvents=0;width=90;height=30;fontSize=14;" parent="1" vertex="1">
          <mxGeometry x="155" y="1218" width="1185" height="622" as="geometry" />
        </mxCell>
        <mxCell id="bSAmWvmNLgvnrRm7QgKB-52" value="" style="endArrow=none;dashed=1;html=1;rounded=0;fontSize=14;entryX=1;entryY=0.108;entryDx=0;entryDy=0;entryPerimeter=0;" parent="1" target="bSAmWvmNLgvnrRm7QgKB-51" edge="1">
          <mxGeometry width="50" height="50" relative="1" as="geometry">
            <mxPoint x="155" y="1278" as="sourcePoint" />
            <mxPoint x="977" y="1278" as="targetPoint" />
          </mxGeometry>
        </mxCell>
        <mxCell id="bSAmWvmNLgvnrRm7QgKB-53" value="[Invalid]" style="text;html=1;align=center;verticalAlign=middle;resizable=0;points=[];autosize=1;strokeColor=none;fillColor=none;fontSize=14;" parent="1" vertex="1">
          <mxGeometry x="150" y="1246" width="70" height="30" as="geometry" />
        </mxCell>
        <mxCell id="bSAmWvmNLgvnrRm7QgKB-54" value="[Valid]" style="text;html=1;align=center;verticalAlign=middle;resizable=0;points=[];autosize=1;strokeColor=none;fillColor=none;fontSize=14;" parent="1" vertex="1">
          <mxGeometry x="155" y="1276" width="60" height="30" as="geometry" />
        </mxCell>
        <mxCell id="bSAmWvmNLgvnrRm7QgKB-55" value="" style="endArrow=none;dashed=1;html=1;rounded=0;fontSize=14;" parent="1" edge="1">
          <mxGeometry width="50" height="50" relative="1" as="geometry">
            <mxPoint x="680" y="1840" as="sourcePoint" />
            <mxPoint x="680" y="1138" as="targetPoint" />
          </mxGeometry>
        </mxCell>
        <mxCell id="bSAmWvmNLgvnrRm7QgKB-56" value="createAccount(&lt;span style=&quot;background-color: light-dark(#ffffff, var(--ge-dark-color, #121212)); color: light-dark(rgb(0, 0, 0), rgb(255, 255, 255));&quot;&gt;)&lt;/span&gt;" style="html=1;verticalAlign=bottom;endArrow=block;curved=0;rounded=0;fontSize=14;" parent="1" target="bSAmWvmNLgvnrRm7QgKB-57" edge="1">
          <mxGeometry width="80" relative="1" as="geometry">
            <mxPoint x="450" y="1324" as="sourcePoint" />
            <mxPoint x="555" y="1324" as="targetPoint" />
            <Array as="points">
              <mxPoint x="535" y="1324" />
            </Array>
          </mxGeometry>
        </mxCell>
        <mxCell id="bSAmWvmNLgvnrRm7QgKB-57" value="" style="html=1;points=[[0,0,0,0,5],[0,1,0,0,-5],[1,0,0,0,5],[1,1,0,0,-5]];perimeter=orthogonalPerimeter;outlineConnect=0;targetShapes=umlLifeline;portConstraint=eastwest;newEdgeStyle={&quot;curved&quot;:0,&quot;rounded&quot;:0};fontSize=14;" parent="1" vertex="1">
          <mxGeometry x="675" y="1302" width="10" height="448" as="geometry" />
        </mxCell>
        <mxCell id="bSAmWvmNLgvnrRm7QgKB-58" value="success" style="html=1;verticalAlign=bottom;endArrow=open;dashed=1;endSize=8;curved=0;rounded=0;fontSize=14;" parent="1" edge="1">
          <mxGeometry relative="1" as="geometry">
            <mxPoint x="450" y="1730" as="targetPoint" />
            <mxPoint x="677" y="1730" as="sourcePoint" />
            <Array as="points">
              <mxPoint x="521" y="1730" />
            </Array>
          </mxGeometry>
        </mxCell>
        <mxCell id="bSAmWvmNLgvnrRm7QgKB-59" value="showSuccess()" style="html=1;verticalAlign=bottom;endArrow=block;curved=0;rounded=0;fontSize=14;" parent="1" edge="1">
          <mxGeometry width="80" relative="1" as="geometry">
            <mxPoint x="442" y="1764.5" as="sourcePoint" />
            <mxPoint x="297" y="1764.5" as="targetPoint" />
            <Array as="points">
              <mxPoint x="367" y="1764.5" />
            </Array>
          </mxGeometry>
        </mxCell>
        <mxCell id="bSAmWvmNLgvnrRm7QgKB-60" value="" style="endArrow=none;dashed=1;html=1;rounded=0;fontSize=14;" parent="1" source="bSAmWvmNLgvnrRm7QgKB-62" edge="1">
          <mxGeometry width="50" height="50" relative="1" as="geometry">
            <mxPoint x="922" y="1797" as="sourcePoint" />
            <mxPoint x="922" y="1139" as="targetPoint" />
          </mxGeometry>
        </mxCell>
        <mxCell id="bSAmWvmNLgvnrRm7QgKB-61" value="" style="endArrow=none;dashed=1;html=1;rounded=0;fontSize=14;" parent="1" edge="1">
          <mxGeometry width="50" height="50" relative="1" as="geometry">
            <mxPoint x="920" y="1840" as="sourcePoint" />
            <mxPoint x="920" y="1680" as="targetPoint" />
          </mxGeometry>
        </mxCell>
        <mxCell id="bSAmWvmNLgvnrRm7QgKB-62" value="" style="html=1;points=[[0,0,0,0,5],[0,1,0,0,-5],[1,0,0,0,5],[1,1,0,0,-5]];perimeter=orthogonalPerimeter;outlineConnect=0;targetShapes=umlLifeline;portConstraint=eastwest;newEdgeStyle={&quot;curved&quot;:0,&quot;rounded&quot;:0};fontSize=14;" parent="1" vertex="1">
          <mxGeometry x="915" y="1349" width="10" height="381" as="geometry" />
        </mxCell>
        <mxCell id="bSAmWvmNLgvnrRm7QgKB-63" value="&lt;span&gt;:RegisertForm&lt;/span&gt;" style="html=1;whiteSpace=wrap;fontSize=14;" parent="1" vertex="1">
          <mxGeometry x="390" y="1078" width="110" height="50" as="geometry" />
        </mxCell>
        <mxCell id="bSAmWvmNLgvnrRm7QgKB-64" value="&lt;span&gt;:Registercontroller&lt;/span&gt;" style="html=1;whiteSpace=wrap;fontSize=14;" parent="1" vertex="1">
          <mxGeometry x="617.5" y="1078" width="125" height="50" as="geometry" />
        </mxCell>
        <mxCell id="bSAmWvmNLgvnrRm7QgKB-65" value="&lt;span&gt;:UserSubsystem&lt;/span&gt;" style="html=1;whiteSpace=wrap;fontSize=14;" parent="1" vertex="1">
          <mxGeometry x="865" y="1083" width="110" height="50" as="geometry" />
        </mxCell>
        <mxCell id="bSAmWvmNLgvnrRm7QgKB-66" value="createAccount(&lt;span style=&quot;background-color: light-dark(#ffffff, var(--ge-dark-color, #121212)); color: light-dark(rgb(0, 0, 0), rgb(255, 255, 255));&quot;&gt;)&lt;/span&gt;" style="html=1;verticalAlign=bottom;endArrow=block;curved=0;rounded=0;fontSize=14;" parent="1" source="bSAmWvmNLgvnrRm7QgKB-57" target="bSAmWvmNLgvnrRm7QgKB-62" edge="1">
          <mxGeometry width="80" relative="1" as="geometry">
            <mxPoint x="610" y="1368" as="sourcePoint" />
            <mxPoint x="760" y="1368" as="targetPoint" />
            <Array as="points">
              <mxPoint x="705" y="1348" />
            </Array>
          </mxGeometry>
        </mxCell>
        <mxCell id="bSAmWvmNLgvnrRm7QgKB-67" value="success" style="html=1;verticalAlign=bottom;endArrow=open;dashed=1;endSize=8;curved=0;rounded=0;fontSize=14;" parent="1" edge="1">
          <mxGeometry relative="1" as="geometry">
            <mxPoint x="687" y="1710" as="targetPoint" />
            <mxPoint x="917" y="1710" as="sourcePoint" />
            <Array as="points">
              <mxPoint x="788" y="1710" />
            </Array>
          </mxGeometry>
        </mxCell>
        <mxCell id="MYNhYdkE6Erh-mB-rJYP-1" value="" style="endArrow=none;dashed=1;html=1;rounded=0;fontSize=14;" parent="1" source="MYNhYdkE6Erh-mB-rJYP-3" edge="1">
          <mxGeometry width="50" height="50" relative="1" as="geometry">
            <mxPoint x="1167" y="1797" as="sourcePoint" />
            <mxPoint x="1167" y="1139" as="targetPoint" />
          </mxGeometry>
        </mxCell>
        <mxCell id="MYNhYdkE6Erh-mB-rJYP-2" value="" style="endArrow=none;dashed=1;html=1;rounded=0;fontSize=14;exitX=0.852;exitY=1.002;exitDx=0;exitDy=0;exitPerimeter=0;" parent="1" target="MYNhYdkE6Erh-mB-rJYP-3" edge="1" source="bSAmWvmNLgvnrRm7QgKB-51">
          <mxGeometry width="50" height="50" relative="1" as="geometry">
            <mxPoint x="1165" y="1800" as="sourcePoint" />
            <mxPoint x="1167" y="1139" as="targetPoint" />
          </mxGeometry>
        </mxCell>
        <mxCell id="MYNhYdkE6Erh-mB-rJYP-3" value="" style="html=1;points=[[0,0,0,0,5],[0,1,0,0,-5],[1,0,0,0,5],[1,1,0,0,-5]];perimeter=orthogonalPerimeter;outlineConnect=0;targetShapes=umlLifeline;portConstraint=eastwest;newEdgeStyle={&quot;curved&quot;:0,&quot;rounded&quot;:0};fontSize=14;" parent="1" vertex="1">
          <mxGeometry x="1160" y="1349" width="10" height="71" as="geometry" />
        </mxCell>
        <mxCell id="MYNhYdkE6Erh-mB-rJYP-4" value="&lt;span&gt;:User&lt;/span&gt;" style="html=1;whiteSpace=wrap;fontSize=14;" parent="1" vertex="1">
          <mxGeometry x="1110" y="1083" width="110" height="50" as="geometry" />
        </mxCell>
        <mxCell id="MYNhYdkE6Erh-mB-rJYP-5" value="newUser()" style="html=1;verticalAlign=bottom;endArrow=block;curved=0;rounded=0;fontSize=14;" parent="1" source="bSAmWvmNLgvnrRm7QgKB-62" target="MYNhYdkE6Erh-mB-rJYP-3" edge="1">
          <mxGeometry width="80" relative="1" as="geometry">
            <mxPoint x="940" y="1370" as="sourcePoint" />
            <mxPoint x="1180" y="1370" as="targetPoint" />
            <Array as="points">
              <mxPoint x="960" y="1370" />
            </Array>
          </mxGeometry>
        </mxCell>
        <mxCell id="MYNhYdkE6Erh-mB-rJYP-6" value="newUser" style="html=1;verticalAlign=bottom;endArrow=open;dashed=1;endSize=8;curved=0;rounded=0;fontSize=14;" parent="1" edge="1">
          <mxGeometry relative="1" as="geometry">
            <mxPoint x="925" y="1410" as="targetPoint" />
            <mxPoint x="1160" y="1410" as="sourcePoint" />
            <Array as="points">
              <mxPoint x="1026" y="1410" />
            </Array>
          </mxGeometry>
        </mxCell>
        <mxCell id="GIiloaxKGJLDKPR7btRv-4" value="isDuplicated" style="html=1;verticalAlign=bottom;endArrow=open;dashed=1;endSize=8;curved=0;rounded=0;fontSize=14;" parent="1" edge="1">
          <mxGeometry relative="1" as="geometry">
            <mxPoint x="685" y="1600" as="targetPoint" />
            <mxPoint x="915" y="1600" as="sourcePoint" />
            <Array as="points">
              <mxPoint x="796" y="1600" />
            </Array>
          </mxGeometry>
        </mxCell>
        <mxCell id="GIiloaxKGJLDKPR7btRv-5" value="false" style="html=1;verticalAlign=bottom;endArrow=open;dashed=1;endSize=8;curved=0;rounded=0;fontSize=14;" parent="1" edge="1">
          <mxGeometry relative="1" as="geometry">
            <mxPoint x="450" y="1610" as="targetPoint" />
            <mxPoint x="675" y="1610" as="sourcePoint" />
            <Array as="points">
              <mxPoint x="556" y="1610" />
            </Array>
          </mxGeometry>
        </mxCell>
        <mxCell id="GIiloaxKGJLDKPR7btRv-6" value="showAlert()" style="html=1;verticalAlign=bottom;endArrow=block;curved=0;rounded=0;fontSize=14;" parent="1" edge="1">
          <mxGeometry width="80" relative="1" as="geometry">
            <mxPoint x="440" y="1650" as="sourcePoint" />
            <mxPoint x="295" y="1650" as="targetPoint" />
            <Array as="points">
              <mxPoint x="365" y="1650" />
            </Array>
          </mxGeometry>
        </mxCell>
        <mxCell id="GIiloaxKGJLDKPR7btRv-8" value="alt" style="shape=umlFrame;whiteSpace=wrap;html=1;pointerEvents=0;fontSize=14;" parent="1" vertex="1">
          <mxGeometry x="215" y="1570" width="790" height="230" as="geometry" />
        </mxCell>
        <mxCell id="GIiloaxKGJLDKPR7btRv-10" value="" style="endArrow=none;dashed=1;html=1;rounded=0;exitX=-0.003;exitY=0.259;exitDx=0;exitDy=0;exitPerimeter=0;entryX=0.997;entryY=0.259;entryDx=0;entryDy=0;entryPerimeter=0;fontSize=14;" parent="1" edge="1">
          <mxGeometry width="50" height="50" relative="1" as="geometry">
            <mxPoint x="215.0000000000001" y="1620" as="sourcePoint" />
            <mxPoint x="1005.0000000000001" y="1620" as="targetPoint" />
          </mxGeometry>
        </mxCell>
        <mxCell id="GIiloaxKGJLDKPR7btRv-11" value="[user is duplicated]" style="text;html=1;align=center;verticalAlign=middle;resizable=0;points=[];autosize=1;strokeColor=none;fillColor=none;fontSize=14;" parent="1" vertex="1">
          <mxGeometry x="250" y="1590" width="140" height="30" as="geometry" />
        </mxCell>
        <mxCell id="GIiloaxKGJLDKPR7btRv-12" value="[user is not duplicated]" style="text;html=1;align=center;verticalAlign=middle;resizable=0;points=[];autosize=1;strokeColor=none;fillColor=none;fontSize=14;" parent="1" vertex="1">
          <mxGeometry x="205" y="1620" width="160" height="30" as="geometry" />
        </mxCell>
        <mxCell id="x4T-vujGuAk_x4bTY7AD-3" value="UserDatabase" style="shape=umlActor;verticalLabelPosition=bottom;verticalAlign=top;html=1;fontSize=14;" vertex="1" parent="1">
          <mxGeometry x="1270" y="1049" width="30" height="60" as="geometry" />
        </mxCell>
        <mxCell id="x4T-vujGuAk_x4bTY7AD-4" value="" style="endArrow=none;dashed=1;html=1;rounded=0;fontSize=14;" edge="1" parent="1" source="XxVtPcqeTrk9MGjke-4N-1">
          <mxGeometry width="50" height="50" relative="1" as="geometry">
            <mxPoint x="1285" y="1799" as="sourcePoint" />
            <mxPoint x="1285" y="1137" as="targetPoint" />
          </mxGeometry>
        </mxCell>
        <mxCell id="XxVtPcqeTrk9MGjke-4N-2" value="" style="endArrow=none;dashed=1;html=1;rounded=0;fontSize=14;" edge="1" parent="1" source="XxVtPcqeTrk9MGjke-4N-6" target="XxVtPcqeTrk9MGjke-4N-1">
          <mxGeometry width="50" height="50" relative="1" as="geometry">
            <mxPoint x="1285" y="1799" as="sourcePoint" />
            <mxPoint x="1285" y="1137" as="targetPoint" />
          </mxGeometry>
        </mxCell>
        <mxCell id="XxVtPcqeTrk9MGjke-4N-1" value="" style="html=1;points=[[0,0,0,0,5],[0,1,0,0,-5],[1,0,0,0,5],[1,1,0,0,-5]];perimeter=orthogonalPerimeter;outlineConnect=0;targetShapes=umlLifeline;portConstraint=eastwest;newEdgeStyle={&quot;curved&quot;:0,&quot;rounded&quot;:0};fontSize=14;" vertex="1" parent="1">
          <mxGeometry x="1280" y="1429" width="10" height="61" as="geometry" />
        </mxCell>
        <mxCell id="XxVtPcqeTrk9MGjke-4N-3" value="checkDuplicate()" style="html=1;verticalAlign=bottom;endArrow=block;curved=0;rounded=0;fontSize=14;" edge="1" parent="1">
          <mxGeometry width="80" relative="1" as="geometry">
            <mxPoint x="925" y="1443.5" as="sourcePoint" />
            <mxPoint x="1280" y="1443.5" as="targetPoint" />
            <Array as="points">
              <mxPoint x="970" y="1443.5" />
            </Array>
          </mxGeometry>
        </mxCell>
        <mxCell id="XxVtPcqeTrk9MGjke-4N-5" value="false" style="html=1;verticalAlign=bottom;endArrow=open;dashed=1;endSize=8;curved=0;rounded=0;fontSize=14;" edge="1" parent="1">
          <mxGeometry relative="1" as="geometry">
            <mxPoint x="925" y="1480" as="targetPoint" />
            <mxPoint x="1280" y="1480" as="sourcePoint" />
            <Array as="points">
              <mxPoint x="1051" y="1480" />
            </Array>
          </mxGeometry>
        </mxCell>
        <mxCell id="XxVtPcqeTrk9MGjke-4N-7" value="" style="endArrow=none;dashed=1;html=1;rounded=0;fontSize=14;exitX=0.954;exitY=0.997;exitDx=0;exitDy=0;exitPerimeter=0;" edge="1" parent="1" source="bSAmWvmNLgvnrRm7QgKB-51" target="XxVtPcqeTrk9MGjke-4N-6">
          <mxGeometry width="50" height="50" relative="1" as="geometry">
            <mxPoint x="1285" y="1799" as="sourcePoint" />
            <mxPoint x="1285" y="1490" as="targetPoint" />
          </mxGeometry>
        </mxCell>
        <mxCell id="XxVtPcqeTrk9MGjke-4N-6" value="" style="html=1;points=[[0,0,0,0,5],[0,1,0,0,-5],[1,0,0,0,5],[1,1,0,0,-5]];perimeter=orthogonalPerimeter;outlineConnect=0;targetShapes=umlLifeline;portConstraint=eastwest;newEdgeStyle={&quot;curved&quot;:0,&quot;rounded&quot;:0};fontSize=14;" vertex="1" parent="1">
          <mxGeometry x="1280" y="1510" width="10" height="50" as="geometry" />
        </mxCell>
        <mxCell id="XxVtPcqeTrk9MGjke-4N-8" value="newUser()" style="html=1;verticalAlign=bottom;endArrow=block;curved=0;rounded=0;fontSize=14;" edge="1" parent="1">
          <mxGeometry width="80" relative="1" as="geometry">
            <mxPoint x="925" y="1510" as="sourcePoint" />
            <mxPoint x="1280" y="1510" as="targetPoint" />
            <Array as="points">
              <mxPoint x="970" y="1510" />
            </Array>
          </mxGeometry>
        </mxCell>
        <mxCell id="XxVtPcqeTrk9MGjke-4N-9" value="newUser" style="html=1;verticalAlign=bottom;endArrow=open;dashed=1;endSize=8;curved=0;rounded=0;fontSize=14;" edge="1" parent="1">
          <mxGeometry relative="1" as="geometry">
            <mxPoint x="925" y="1550" as="targetPoint" />
            <mxPoint x="1280" y="1550" as="sourcePoint" />
            <Array as="points">
              <mxPoint x="1051" y="1550" />
            </Array>
          </mxGeometry>
        </mxCell>
      </root>
    </mxGraphModel>
  </diagram>
  <diagram id="eaXd0ea6odBUPUBpOPbp" name="Lớp đăng ký">
    <mxGraphModel dx="1368" dy="838" grid="1" gridSize="10" guides="1" tooltips="1" connect="1" arrows="1" fold="1" page="1" pageScale="1" pageWidth="850" pageHeight="1100" math="0" shadow="0">
      <root>
        <mxCell id="0" />
        <mxCell id="1" parent="0" />
        <mxCell id="m7xDffsqPlL5rMc9zpx5-1" style="edgeStyle=orthogonalEdgeStyle;rounded=0;orthogonalLoop=1;jettySize=auto;html=1;endArrow=none;startFill=0;fontSize=14;" edge="1" parent="1" source="m7xDffsqPlL5rMc9zpx5-2" target="0Ob3xB-CUWGPbmTrARRZ-1">
          <mxGeometry relative="1" as="geometry">
            <mxPoint x="430" y="370" as="targetPoint" />
          </mxGeometry>
        </mxCell>
        <mxCell id="m7xDffsqPlL5rMc9zpx5-2" value="&lt;p style=&quot;margin:0px;margin-top:4px;text-align:center;&quot;&gt;&lt;b&gt;RegisterForm&lt;/b&gt;&lt;/p&gt;&lt;hr style=&quot;border-style:solid;&quot;&gt;&lt;p style=&quot;margin:0px;margin-left:4px;&quot;&gt;&lt;br&gt;&lt;br&gt;&lt;/p&gt;&lt;hr style=&quot;border-style:solid;&quot;&gt;&lt;p style=&quot;margin:0px;margin-left:4px;&quot;&gt;+enterInfo(username: String, phoneNumber: String, gmail: String, password: String) void&lt;/p&gt;&lt;p style=&quot;margin:0px;margin-left:4px;&quot;&gt;+displayForm() void&lt;/p&gt;&lt;p style=&quot;margin:0px;margin-left:4px;&quot;&gt;+checkValid(username: String, phongeNumber: String, gmail: String, password: String) boolean&lt;/p&gt;&lt;p style=&quot;margin:0px;margin-left:4px;&quot;&gt;+showAlert() void&lt;/p&gt;&lt;p style=&quot;margin:0px;margin-left:4px;&quot;&gt;&lt;br&gt;&lt;/p&gt;" style="verticalAlign=top;align=left;overflow=fill;html=1;whiteSpace=wrap;fontSize=14;" vertex="1" parent="1">
          <mxGeometry x="170" y="520" width="190" height="250" as="geometry" />
        </mxCell>
        <mxCell id="m7xDffsqPlL5rMc9zpx5-9" value="1" style="text;html=1;align=center;verticalAlign=middle;resizable=0;points=[];autosize=1;strokeColor=none;fillColor=none;fontSize=14;" vertex="1" parent="1">
          <mxGeometry x="240" y="490" width="30" height="30" as="geometry" />
        </mxCell>
        <mxCell id="5DiRqL1aRj8pFzgLIuKT-2" style="edgeStyle=orthogonalEdgeStyle;rounded=0;orthogonalLoop=1;jettySize=auto;html=1;endArrow=none;startFill=0;fontSize=14;" edge="1" parent="1" source="0Ob3xB-CUWGPbmTrARRZ-1" target="5DiRqL1aRj8pFzgLIuKT-1">
          <mxGeometry relative="1" as="geometry" />
        </mxCell>
        <mxCell id="0Ob3xB-CUWGPbmTrARRZ-1" value="&lt;p style=&quot;margin:0px;margin-top:4px;text-align:center;&quot;&gt;&lt;b&gt;RegisterController&lt;/b&gt;&lt;/p&gt;&lt;hr style=&quot;border-style:solid;&quot;&gt;&lt;p style=&quot;margin:0px;margin-left:4px;&quot;&gt;&lt;br&gt;&lt;br&gt;&lt;/p&gt;&lt;hr style=&quot;border-style:solid;&quot;&gt;&lt;p style=&quot;margin:0px;margin-left:4px;&quot;&gt;+createAccount(userName: String, phoneNumber: String, gmail: String, password: String) boolean&lt;/p&gt;" style="verticalAlign=top;align=left;overflow=fill;html=1;whiteSpace=wrap;fontSize=14;" vertex="1" parent="1">
          <mxGeometry x="320" y="188" width="190" height="210" as="geometry" />
        </mxCell>
        <mxCell id="gXy67674yqZpOjk5dhJz-1" value="1" style="text;html=1;align=center;verticalAlign=middle;resizable=0;points=[];autosize=1;strokeColor=none;fillColor=none;fontSize=14;" vertex="1" parent="1">
          <mxGeometry x="410" y="400" width="30" height="30" as="geometry" />
        </mxCell>
        <mxCell id="5DiRqL1aRj8pFzgLIuKT-6" style="edgeStyle=orthogonalEdgeStyle;rounded=0;orthogonalLoop=1;jettySize=auto;html=1;endArrow=open;startFill=0;dashed=1;endFill=0;strokeWidth=1;endSize=12;fontSize=14;" edge="1" parent="1" source="5DiRqL1aRj8pFzgLIuKT-1" target="5DiRqL1aRj8pFzgLIuKT-5">
          <mxGeometry relative="1" as="geometry" />
        </mxCell>
        <mxCell id="5DiRqL1aRj8pFzgLIuKT-1" value="&lt;p style=&quot;margin:0px;margin-top:4px;text-align:center;&quot;&gt;&lt;b&gt;UserSubsystem&lt;/b&gt;&lt;/p&gt;&lt;hr style=&quot;border-style:solid;&quot;&gt;&lt;p style=&quot;margin:0px;margin-left:4px;&quot;&gt;&lt;br&gt;&lt;br&gt;&lt;/p&gt;&lt;hr style=&quot;border-style:solid;&quot;&gt;&lt;p style=&quot;margin:0px;margin-left:4px;&quot;&gt;+createAccount(userName: String, phoneNumber: String, gmail: String, password: String) boolean&lt;/p&gt;&lt;p style=&quot;margin:0px;margin-left:4px;&quot;&gt;+checkDuplicate(newaccount: User) boolean&lt;/p&gt;" style="verticalAlign=top;align=left;overflow=fill;html=1;whiteSpace=wrap;fontSize=14;" vertex="1" parent="1">
          <mxGeometry x="780" y="200" width="190" height="210" as="geometry" />
        </mxCell>
        <mxCell id="5DiRqL1aRj8pFzgLIuKT-3" value="1" style="text;html=1;align=center;verticalAlign=middle;resizable=0;points=[];autosize=1;strokeColor=none;fillColor=none;fontSize=14;" vertex="1" parent="1">
          <mxGeometry x="510" y="270" width="30" height="30" as="geometry" />
        </mxCell>
        <mxCell id="5DiRqL1aRj8pFzgLIuKT-4" value="1" style="text;html=1;align=center;verticalAlign=middle;resizable=0;points=[];autosize=1;strokeColor=none;fillColor=none;fontSize=14;" vertex="1" parent="1">
          <mxGeometry x="755" y="278" width="30" height="30" as="geometry" />
        </mxCell>
        <mxCell id="5DiRqL1aRj8pFzgLIuKT-5" value="&lt;p style=&quot;margin:0px;margin-top:4px;text-align:center;&quot;&gt;&lt;b&gt;User&lt;/b&gt;&lt;/p&gt;&lt;hr style=&quot;border-style:solid;&quot;&gt;&lt;p style=&quot;margin:0px;margin-left:4px;&quot;&gt;-username: String&lt;/p&gt;&lt;p style=&quot;margin:0px;margin-left:4px;&quot;&gt;-phoneNumber: String&lt;/p&gt;&lt;p style=&quot;margin:0px;margin-left:4px;&quot;&gt;-gmail: String&lt;/p&gt;&lt;p style=&quot;margin:0px;margin-left:4px;&quot;&gt;-password: String&lt;br&gt;&lt;br&gt;&lt;/p&gt;&lt;hr style=&quot;border-style:solid;&quot;&gt;&lt;p style=&quot;margin:0px;margin-left:4px;&quot;&gt;+getUsername(): String&lt;/p&gt;&lt;p style=&quot;margin:0px;margin-left:4px;&quot;&gt;+getPassword(): String&lt;/p&gt;&lt;p style=&quot;margin:0px;margin-left:4px;&quot;&gt;+getPhoneNumber(): String&lt;/p&gt;&lt;p style=&quot;margin:0px;margin-left:4px;&quot;&gt;+getGmail(): String&lt;/p&gt;&lt;p style=&quot;margin:0px;margin-left:4px;&quot;&gt;+User(username: String, phoneNumber: String, gmail: String, password: String) User&lt;/p&gt;" style="verticalAlign=top;align=left;overflow=fill;html=1;whiteSpace=wrap;fontSize=14;" vertex="1" parent="1">
          <mxGeometry x="780" y="530" width="190" height="280" as="geometry" />
        </mxCell>
        <mxCell id="5DiRqL1aRj8pFzgLIuKT-7" value="1" style="text;html=1;align=center;verticalAlign=middle;resizable=0;points=[];autosize=1;strokeColor=none;fillColor=none;fontSize=14;" vertex="1" parent="1">
          <mxGeometry x="840" y="410" width="30" height="30" as="geometry" />
        </mxCell>
        <mxCell id="5DiRqL1aRj8pFzgLIuKT-8" value="1" style="text;html=1;align=center;verticalAlign=middle;resizable=0;points=[];autosize=1;strokeColor=none;fillColor=none;fontSize=14;" vertex="1" parent="1">
          <mxGeometry x="890" y="500" width="30" height="30" as="geometry" />
        </mxCell>
      </root>
    </mxGraphModel>
  </diagram>
  <diagram id="wVcfSmAl5SsrXeK0-WA2" name="Đăng nhập">
    <mxGraphModel dx="1360" dy="843" grid="1" gridSize="10" guides="1" tooltips="1" connect="1" arrows="1" fold="1" page="1" pageScale="1" pageWidth="850" pageHeight="1100" math="0" shadow="0">
      <root>
        <mxCell id="0" />
        <mxCell id="1" parent="0" />
        <mxCell id="1TgyzN1yEkJpgpGhLSUL-1" value="User" style="shape=umlActor;verticalLabelPosition=bottom;verticalAlign=top;html=1;fontSize=14;" parent="1" vertex="1">
          <mxGeometry x="335" y="540" width="30" height="60" as="geometry" />
        </mxCell>
        <mxCell id="1TgyzN1yEkJpgpGhLSUL-2" value="" style="endArrow=none;dashed=1;html=1;rounded=0;fontSize=14;" parent="1" edge="1">
          <mxGeometry width="50" height="50" relative="1" as="geometry">
            <mxPoint x="350" y="1360" as="sourcePoint" />
            <mxPoint x="350" y="628" as="targetPoint" />
          </mxGeometry>
        </mxCell>
        <mxCell id="1TgyzN1yEkJpgpGhLSUL-3" value="" style="html=1;points=[[0,0,0,0,5],[0,1,0,0,-5],[1,0,0,0,5],[1,1,0,0,-5]];perimeter=orthogonalPerimeter;outlineConnect=0;targetShapes=umlLifeline;portConstraint=eastwest;newEdgeStyle={&quot;curved&quot;:0,&quot;rounded&quot;:0};fontSize=14;" parent="1" vertex="1">
          <mxGeometry x="345" y="638" width="10" height="432" as="geometry" />
        </mxCell>
        <mxCell id="1TgyzN1yEkJpgpGhLSUL-4" value="" style="endArrow=none;dashed=1;html=1;rounded=0;fontSize=14;" parent="1" edge="1">
          <mxGeometry width="50" height="50" relative="1" as="geometry">
            <mxPoint x="505" y="1360" as="sourcePoint" />
            <mxPoint x="505" y="628" as="targetPoint" />
          </mxGeometry>
        </mxCell>
        <mxCell id="1TgyzN1yEkJpgpGhLSUL-5" value="" style="html=1;points=[[0,0,0,0,5],[0,1,0,0,-5],[1,0,0,0,5],[1,1,0,0,-5]];perimeter=orthogonalPerimeter;outlineConnect=0;targetShapes=umlLifeline;portConstraint=eastwest;newEdgeStyle={&quot;curved&quot;:0,&quot;rounded&quot;:0};fontSize=14;" parent="1" vertex="1">
          <mxGeometry x="500" y="638" width="10" height="432" as="geometry" />
        </mxCell>
        <mxCell id="1TgyzN1yEkJpgpGhLSUL-6" value="enterInfo()" style="html=1;verticalAlign=bottom;endArrow=block;curved=0;rounded=0;fontSize=14;" parent="1" source="1TgyzN1yEkJpgpGhLSUL-3" target="1TgyzN1yEkJpgpGhLSUL-5" edge="1">
          <mxGeometry width="80" relative="1" as="geometry">
            <mxPoint x="495" y="788" as="sourcePoint" />
            <mxPoint x="575" y="788" as="targetPoint" />
            <Array as="points">
              <mxPoint x="425" y="668" />
            </Array>
          </mxGeometry>
        </mxCell>
        <mxCell id="1TgyzN1yEkJpgpGhLSUL-7" value="showAlert()" style="html=1;verticalAlign=bottom;endArrow=block;curved=0;rounded=0;fontSize=14;" parent="1" source="1TgyzN1yEkJpgpGhLSUL-5" target="1TgyzN1yEkJpgpGhLSUL-3" edge="1">
          <mxGeometry width="80" relative="1" as="geometry">
            <mxPoint x="495" y="698" as="sourcePoint" />
            <mxPoint x="605" y="648" as="targetPoint" />
            <Array as="points">
              <mxPoint x="425" y="738" />
            </Array>
          </mxGeometry>
        </mxCell>
        <mxCell id="1TgyzN1yEkJpgpGhLSUL-8" value="checkValid()" style="html=1;align=left;spacingLeft=2;endArrow=block;rounded=0;edgeStyle=orthogonalEdgeStyle;curved=0;rounded=0;fontSize=14;" parent="1" source="1TgyzN1yEkJpgpGhLSUL-5" target="1TgyzN1yEkJpgpGhLSUL-5" edge="1">
          <mxGeometry relative="1" as="geometry">
            <mxPoint x="595" y="638" as="sourcePoint" />
            <Array as="points">
              <mxPoint x="530" y="678" />
              <mxPoint x="530" y="698" />
            </Array>
            <mxPoint x="600" y="668.0285714285715" as="targetPoint" />
          </mxGeometry>
        </mxCell>
        <mxCell id="1TgyzN1yEkJpgpGhLSUL-9" value="checkValid()" style="shape=umlFrame;whiteSpace=wrap;html=1;pointerEvents=0;width=90;height=30;fontSize=14;" parent="1" vertex="1">
          <mxGeometry x="215" y="708" width="1065" height="432" as="geometry" />
        </mxCell>
        <mxCell id="1TgyzN1yEkJpgpGhLSUL-10" value="" style="endArrow=none;dashed=1;html=1;rounded=0;fontSize=14;entryX=1.001;entryY=0.134;entryDx=0;entryDy=0;entryPerimeter=0;" parent="1" target="1TgyzN1yEkJpgpGhLSUL-9" edge="1">
          <mxGeometry width="50" height="50" relative="1" as="geometry">
            <mxPoint x="215" y="768" as="sourcePoint" />
            <mxPoint x="1037" y="768" as="targetPoint" />
          </mxGeometry>
        </mxCell>
        <mxCell id="1TgyzN1yEkJpgpGhLSUL-11" value="[Invalid]" style="text;html=1;align=center;verticalAlign=middle;resizable=0;points=[];autosize=1;strokeColor=none;fillColor=none;fontSize=14;" parent="1" vertex="1">
          <mxGeometry x="210" y="736" width="70" height="30" as="geometry" />
        </mxCell>
        <mxCell id="1TgyzN1yEkJpgpGhLSUL-12" value="[Valid]" style="text;html=1;align=center;verticalAlign=middle;resizable=0;points=[];autosize=1;strokeColor=none;fillColor=none;fontSize=14;" parent="1" vertex="1">
          <mxGeometry x="215" y="766" width="60" height="30" as="geometry" />
        </mxCell>
        <mxCell id="1TgyzN1yEkJpgpGhLSUL-13" value="" style="endArrow=none;dashed=1;html=1;rounded=0;fontSize=14;" parent="1" edge="1">
          <mxGeometry width="50" height="50" relative="1" as="geometry">
            <mxPoint x="740" y="1360" as="sourcePoint" />
            <mxPoint x="740" y="628" as="targetPoint" />
          </mxGeometry>
        </mxCell>
        <mxCell id="1TgyzN1yEkJpgpGhLSUL-14" value="Login()" style="html=1;verticalAlign=bottom;endArrow=block;curved=0;rounded=0;fontSize=14;" parent="1" target="1TgyzN1yEkJpgpGhLSUL-15" edge="1">
          <mxGeometry width="80" relative="1" as="geometry">
            <mxPoint x="510" y="814" as="sourcePoint" />
            <mxPoint x="615" y="814" as="targetPoint" />
            <Array as="points">
              <mxPoint x="595" y="814" />
            </Array>
          </mxGeometry>
        </mxCell>
        <mxCell id="1TgyzN1yEkJpgpGhLSUL-15" value="" style="html=1;points=[[0,0,0,0,5],[0,1,0,0,-5],[1,0,0,0,5],[1,1,0,0,-5]];perimeter=orthogonalPerimeter;outlineConnect=0;targetShapes=umlLifeline;portConstraint=eastwest;newEdgeStyle={&quot;curved&quot;:0,&quot;rounded&quot;:0};fontSize=14;" parent="1" vertex="1">
          <mxGeometry x="735" y="792" width="10" height="248" as="geometry" />
        </mxCell>
        <mxCell id="1TgyzN1yEkJpgpGhLSUL-16" value="success" style="html=1;verticalAlign=bottom;endArrow=open;dashed=1;endSize=8;curved=0;rounded=0;fontSize=14;" parent="1" edge="1">
          <mxGeometry relative="1" as="geometry">
            <mxPoint x="508" y="1020" as="targetPoint" />
            <mxPoint x="735" y="1020" as="sourcePoint" />
            <Array as="points">
              <mxPoint x="579" y="1020" />
            </Array>
          </mxGeometry>
        </mxCell>
        <mxCell id="1TgyzN1yEkJpgpGhLSUL-17" value="showSuccess()" style="html=1;verticalAlign=bottom;endArrow=block;curved=0;rounded=0;fontSize=14;" parent="1" edge="1">
          <mxGeometry width="80" relative="1" as="geometry">
            <mxPoint x="500" y="1054.5" as="sourcePoint" />
            <mxPoint x="355" y="1054.5" as="targetPoint" />
            <Array as="points">
              <mxPoint x="425" y="1054.5" />
            </Array>
          </mxGeometry>
        </mxCell>
        <mxCell id="1TgyzN1yEkJpgpGhLSUL-18" value="" style="endArrow=none;dashed=1;html=1;rounded=0;fontSize=14;" parent="1" source="1TgyzN1yEkJpgpGhLSUL-20" edge="1">
          <mxGeometry width="50" height="50" relative="1" as="geometry">
            <mxPoint x="982" y="1287" as="sourcePoint" />
            <mxPoint x="982" y="629" as="targetPoint" />
          </mxGeometry>
        </mxCell>
        <mxCell id="1TgyzN1yEkJpgpGhLSUL-19" value="" style="endArrow=none;dashed=1;html=1;rounded=0;fontSize=14;" parent="1" edge="1">
          <mxGeometry width="50" height="50" relative="1" as="geometry">
            <mxPoint x="980" y="1360" as="sourcePoint" />
            <mxPoint x="980" y="1020" as="targetPoint" />
          </mxGeometry>
        </mxCell>
        <mxCell id="1TgyzN1yEkJpgpGhLSUL-20" value="" style="html=1;points=[[0,0,0,0,5],[0,1,0,0,-5],[1,0,0,0,5],[1,1,0,0,-5]];perimeter=orthogonalPerimeter;outlineConnect=0;targetShapes=umlLifeline;portConstraint=eastwest;newEdgeStyle={&quot;curved&quot;:0,&quot;rounded&quot;:0};fontSize=14;" parent="1" vertex="1">
          <mxGeometry x="975" y="839" width="10" height="201" as="geometry" />
        </mxCell>
        <mxCell id="1TgyzN1yEkJpgpGhLSUL-21" value="&lt;span&gt;:LoginForm&lt;/span&gt;" style="html=1;whiteSpace=wrap;fontSize=14;" parent="1" vertex="1">
          <mxGeometry x="450" y="568" width="110" height="50" as="geometry" />
        </mxCell>
        <mxCell id="1TgyzN1yEkJpgpGhLSUL-22" value="&lt;span&gt;:LoginController&lt;/span&gt;" style="html=1;whiteSpace=wrap;fontSize=14;" parent="1" vertex="1">
          <mxGeometry x="677.5" y="568" width="125" height="50" as="geometry" />
        </mxCell>
        <mxCell id="1TgyzN1yEkJpgpGhLSUL-23" value="&lt;span&gt;:UserSubsystem&lt;/span&gt;" style="html=1;whiteSpace=wrap;fontSize=14;" parent="1" vertex="1">
          <mxGeometry x="925" y="573" width="110" height="50" as="geometry" />
        </mxCell>
        <mxCell id="1TgyzN1yEkJpgpGhLSUL-24" value="checkAccount()" style="html=1;verticalAlign=bottom;endArrow=block;curved=0;rounded=0;fontSize=14;" parent="1" source="1TgyzN1yEkJpgpGhLSUL-15" target="1TgyzN1yEkJpgpGhLSUL-20" edge="1">
          <mxGeometry width="80" relative="1" as="geometry">
            <mxPoint x="670" y="858" as="sourcePoint" />
            <mxPoint x="820" y="858" as="targetPoint" />
            <Array as="points">
              <mxPoint x="765" y="838" />
            </Array>
          </mxGeometry>
        </mxCell>
        <mxCell id="1TgyzN1yEkJpgpGhLSUL-25" value="success" style="html=1;verticalAlign=bottom;endArrow=open;dashed=1;endSize=8;curved=0;rounded=0;fontSize=14;" parent="1" edge="1">
          <mxGeometry relative="1" as="geometry">
            <mxPoint x="745" y="1000" as="targetPoint" />
            <mxPoint x="975" y="1000" as="sourcePoint" />
            <Array as="points">
              <mxPoint x="846" y="1000" />
            </Array>
          </mxGeometry>
        </mxCell>
        <mxCell id="1TgyzN1yEkJpgpGhLSUL-33" value="notMatch" style="html=1;verticalAlign=bottom;endArrow=open;dashed=1;endSize=8;curved=0;rounded=0;fontSize=14;" parent="1" edge="1">
          <mxGeometry relative="1" as="geometry">
            <mxPoint x="743" y="890" as="targetPoint" />
            <mxPoint x="973" y="890" as="sourcePoint" />
            <Array as="points">
              <mxPoint x="854" y="890" />
            </Array>
          </mxGeometry>
        </mxCell>
        <mxCell id="1TgyzN1yEkJpgpGhLSUL-34" value="false" style="html=1;verticalAlign=bottom;endArrow=open;dashed=1;endSize=8;curved=0;rounded=0;fontSize=14;" parent="1" edge="1">
          <mxGeometry relative="1" as="geometry">
            <mxPoint x="508" y="910" as="targetPoint" />
            <mxPoint x="733" y="910" as="sourcePoint" />
            <Array as="points">
              <mxPoint x="614" y="910" />
            </Array>
          </mxGeometry>
        </mxCell>
        <mxCell id="1TgyzN1yEkJpgpGhLSUL-35" value="showAlert()" style="html=1;verticalAlign=bottom;endArrow=block;curved=0;rounded=0;fontSize=14;" parent="1" edge="1">
          <mxGeometry width="80" relative="1" as="geometry">
            <mxPoint x="498" y="940" as="sourcePoint" />
            <mxPoint x="353" y="940" as="targetPoint" />
            <Array as="points">
              <mxPoint x="423" y="940" />
            </Array>
          </mxGeometry>
        </mxCell>
        <mxCell id="1TgyzN1yEkJpgpGhLSUL-36" value="alt" style="shape=umlFrame;whiteSpace=wrap;html=1;pointerEvents=0;fontSize=14;" parent="1" vertex="1">
          <mxGeometry x="275" y="860" width="965" height="250" as="geometry" />
        </mxCell>
        <mxCell id="1TgyzN1yEkJpgpGhLSUL-37" value="" style="endArrow=none;dashed=1;html=1;rounded=0;exitX=-0.003;exitY=0.259;exitDx=0;exitDy=0;exitPerimeter=0;entryX=1;entryY=0.404;entryDx=0;entryDy=0;entryPerimeter=0;fontSize=14;" parent="1" target="1TgyzN1yEkJpgpGhLSUL-36" edge="1">
          <mxGeometry width="50" height="50" relative="1" as="geometry">
            <mxPoint x="275.0000000000001" y="960" as="sourcePoint" />
            <mxPoint x="1065" y="960" as="targetPoint" />
          </mxGeometry>
        </mxCell>
        <mxCell id="1TgyzN1yEkJpgpGhLSUL-38" value="[user is duplicated]" style="text;html=1;align=center;verticalAlign=middle;resizable=0;points=[];autosize=1;strokeColor=none;fillColor=none;fontSize=14;" parent="1" vertex="1">
          <mxGeometry x="265" y="890" width="140" height="30" as="geometry" />
        </mxCell>
        <mxCell id="1TgyzN1yEkJpgpGhLSUL-39" value="[user is not duplicated]" style="text;html=1;align=center;verticalAlign=middle;resizable=0;points=[];autosize=1;strokeColor=none;fillColor=none;fontSize=14;" parent="1" vertex="1">
          <mxGeometry x="265" y="960" width="160" height="30" as="geometry" />
        </mxCell>
        <mxCell id="fpaV1UbwfPucvReP6DVY-1" value="Ref" style="shape=umlFrame;whiteSpace=wrap;html=1;pointerEvents=0;fontSize=14;" parent="1" vertex="1">
          <mxGeometry x="252" y="1150" width="968" height="40" as="geometry" />
        </mxCell>
        <mxCell id="fpaV1UbwfPucvReP6DVY-2" value="Lấy lại mật khẩu" style="text;html=1;align=center;verticalAlign=middle;resizable=0;points=[];autosize=1;strokeColor=none;fillColor=none;fontSize=14;" parent="1" vertex="1">
          <mxGeometry x="675" y="1155" width="130" height="30" as="geometry" />
        </mxCell>
        <mxCell id="fpaV1UbwfPucvReP6DVY-3" value="Ref" style="shape=umlFrame;whiteSpace=wrap;html=1;pointerEvents=0;fontSize=14;" parent="1" vertex="1">
          <mxGeometry x="250" y="1210" width="970" height="40" as="geometry" />
        </mxCell>
        <mxCell id="fpaV1UbwfPucvReP6DVY-4" value="Thay đổi thông tin" style="text;html=1;align=center;verticalAlign=middle;resizable=0;points=[];autosize=1;strokeColor=none;fillColor=none;fontSize=14;" parent="1" vertex="1">
          <mxGeometry x="675" y="1215" width="130" height="30" as="geometry" />
        </mxCell>
        <mxCell id="fpaV1UbwfPucvReP6DVY-5" value="Ref" style="shape=umlFrame;whiteSpace=wrap;html=1;pointerEvents=0;fontSize=14;" parent="1" vertex="1">
          <mxGeometry x="250" y="1270" width="970" height="40" as="geometry" />
        </mxCell>
        <mxCell id="fpaV1UbwfPucvReP6DVY-6" value="Xóa tài khoản" style="text;html=1;align=center;verticalAlign=middle;resizable=0;points=[];autosize=1;strokeColor=none;fillColor=none;fontSize=14;" parent="1" vertex="1">
          <mxGeometry x="685" y="1275" width="110" height="30" as="geometry" />
        </mxCell>
        <mxCell id="n8CH2C3uSUUiY7plgVh1-2" value="" style="endArrow=none;dashed=1;html=1;rounded=0;fontSize=14;" parent="1" edge="1" source="5yc7HZStWNVAAMfHaNY6-2">
          <mxGeometry width="50" height="50" relative="1" as="geometry">
            <mxPoint x="1165" y="1360" as="sourcePoint" />
            <mxPoint x="1165" y="630" as="targetPoint" />
          </mxGeometry>
        </mxCell>
        <mxCell id="CL0JBznGq90KUIlnDu92-1" value="UserDatabase" style="shape=umlActor;verticalLabelPosition=bottom;verticalAlign=top;html=1;fontSize=14;" vertex="1" parent="1">
          <mxGeometry x="1150" y="540" width="30" height="60" as="geometry" />
        </mxCell>
        <mxCell id="5yc7HZStWNVAAMfHaNY6-3" value="" style="endArrow=none;dashed=1;html=1;rounded=0;fontSize=14;" edge="1" parent="1" target="5yc7HZStWNVAAMfHaNY6-2">
          <mxGeometry width="50" height="50" relative="1" as="geometry">
            <mxPoint x="1165" y="1360" as="sourcePoint" />
            <mxPoint x="1165" y="630" as="targetPoint" />
          </mxGeometry>
        </mxCell>
        <mxCell id="5yc7HZStWNVAAMfHaNY6-2" value="" style="html=1;points=[[0,0,0,0,5],[0,1,0,0,-5],[1,0,0,0,5],[1,1,0,0,-5]];perimeter=orthogonalPerimeter;outlineConnect=0;targetShapes=umlLifeline;portConstraint=eastwest;newEdgeStyle={&quot;curved&quot;:0,&quot;rounded&quot;:0};fontSize=14;" vertex="1" parent="1">
          <mxGeometry x="1160" y="839" width="10" height="151" as="geometry" />
        </mxCell>
        <mxCell id="5yc7HZStWNVAAMfHaNY6-4" value="checkAccount()" style="html=1;verticalAlign=bottom;endArrow=block;curved=0;rounded=0;fontSize=14;" edge="1" parent="1" source="1TgyzN1yEkJpgpGhLSUL-20" target="5yc7HZStWNVAAMfHaNY6-2">
          <mxGeometry width="80" relative="1" as="geometry">
            <mxPoint x="985" y="848" as="sourcePoint" />
            <mxPoint x="1215" y="849" as="targetPoint" />
            <Array as="points">
              <mxPoint x="1005" y="848" />
            </Array>
          </mxGeometry>
        </mxCell>
        <mxCell id="5yc7HZStWNVAAMfHaNY6-5" value="notMatch" style="html=1;verticalAlign=bottom;endArrow=open;dashed=1;endSize=8;curved=0;rounded=0;fontSize=14;" edge="1" parent="1" source="5yc7HZStWNVAAMfHaNY6-2" target="1TgyzN1yEkJpgpGhLSUL-20">
          <mxGeometry relative="1" as="geometry">
            <mxPoint x="925" y="880" as="targetPoint" />
            <mxPoint x="1155" y="880" as="sourcePoint" />
            <Array as="points">
              <mxPoint x="1036" y="880" />
            </Array>
          </mxGeometry>
        </mxCell>
        <mxCell id="5yc7HZStWNVAAMfHaNY6-6" value="success" style="html=1;verticalAlign=bottom;endArrow=open;dashed=1;endSize=8;curved=0;rounded=0;fontSize=14;" edge="1" parent="1" target="1TgyzN1yEkJpgpGhLSUL-20">
          <mxGeometry relative="1" as="geometry">
            <mxPoint x="930" y="984.5" as="targetPoint" />
            <mxPoint x="1160" y="984.5" as="sourcePoint" />
            <Array as="points">
              <mxPoint x="1031" y="984.5" />
            </Array>
          </mxGeometry>
        </mxCell>
      </root>
    </mxGraphModel>
  </diagram>
  <diagram id="hoozlNUlAM39Es4dkel_" name="Lớp đăng nhập">
    <mxGraphModel dx="1360" dy="843" grid="1" gridSize="10" guides="1" tooltips="1" connect="1" arrows="1" fold="1" page="1" pageScale="1" pageWidth="850" pageHeight="1100" math="0" shadow="0">
      <root>
        <mxCell id="0" />
        <mxCell id="1" parent="0" />
        <mxCell id="rUq6iCi893aIcEsaKGVk-1" style="edgeStyle=orthogonalEdgeStyle;rounded=0;orthogonalLoop=1;jettySize=auto;html=1;endArrow=none;startFill=0;fontSize=14;" parent="1" source="rUq6iCi893aIcEsaKGVk-2" target="rUq6iCi893aIcEsaKGVk-5" edge="1">
          <mxGeometry relative="1" as="geometry">
            <mxPoint x="400" y="692" as="targetPoint" />
          </mxGeometry>
        </mxCell>
        <mxCell id="rUq6iCi893aIcEsaKGVk-2" value="&lt;p style=&quot;margin:0px;margin-top:4px;text-align:center;&quot;&gt;&lt;b&gt;LoginForm&lt;/b&gt;&lt;/p&gt;&lt;hr style=&quot;border-style:solid;&quot;&gt;&lt;p style=&quot;margin:0px;margin-left:4px;&quot;&gt;&lt;br&gt;&lt;br&gt;&lt;/p&gt;&lt;hr style=&quot;border-style:solid;&quot;&gt;&lt;p style=&quot;margin:0px;margin-left:4px;&quot;&gt;+enterInfo(username: String, password: String) void&lt;/p&gt;&lt;p style=&quot;margin:0px;margin-left:4px;&quot;&gt;+displayForm() void&lt;/p&gt;&lt;p style=&quot;margin:0px;margin-left:4px;&quot;&gt;+checkValid(username: String, password: String) boolean&lt;/p&gt;&lt;p style=&quot;margin:0px;margin-left:4px;&quot;&gt;+showAlert() void&lt;/p&gt;&lt;p style=&quot;margin:0px;margin-left:4px;&quot;&gt;&lt;br&gt;&lt;/p&gt;" style="verticalAlign=top;align=left;overflow=fill;html=1;whiteSpace=wrap;fontSize=14;" parent="1" vertex="1">
          <mxGeometry x="140" y="842" width="190" height="250" as="geometry" />
        </mxCell>
        <mxCell id="rUq6iCi893aIcEsaKGVk-3" value="1" style="text;html=1;align=center;verticalAlign=middle;resizable=0;points=[];autosize=1;strokeColor=none;fillColor=none;fontSize=14;" parent="1" vertex="1">
          <mxGeometry x="210" y="812" width="30" height="30" as="geometry" />
        </mxCell>
        <mxCell id="rUq6iCi893aIcEsaKGVk-4" style="edgeStyle=orthogonalEdgeStyle;rounded=0;orthogonalLoop=1;jettySize=auto;html=1;endArrow=none;startFill=0;fontSize=14;" parent="1" source="rUq6iCi893aIcEsaKGVk-5" target="rUq6iCi893aIcEsaKGVk-8" edge="1">
          <mxGeometry relative="1" as="geometry" />
        </mxCell>
        <mxCell id="rUq6iCi893aIcEsaKGVk-5" value="&lt;p style=&quot;margin:0px;margin-top:4px;text-align:center;&quot;&gt;&lt;b&gt;LoginController&lt;/b&gt;&lt;/p&gt;&lt;hr style=&quot;border-style:solid;&quot;&gt;&lt;p style=&quot;margin:0px;margin-left:4px;&quot;&gt;&lt;br&gt;&lt;br&gt;&lt;/p&gt;&lt;hr style=&quot;border-style:solid;&quot;&gt;&lt;p style=&quot;margin:0px;margin-left:4px;&quot;&gt;+login(userName: String, password: String) boolean&lt;/p&gt;" style="verticalAlign=top;align=left;overflow=fill;html=1;whiteSpace=wrap;fontSize=14;" parent="1" vertex="1">
          <mxGeometry x="290" y="510" width="190" height="210" as="geometry" />
        </mxCell>
        <mxCell id="rUq6iCi893aIcEsaKGVk-6" value="1" style="text;html=1;align=center;verticalAlign=middle;resizable=0;points=[];autosize=1;strokeColor=none;fillColor=none;fontSize=14;" parent="1" vertex="1">
          <mxGeometry x="380" y="722" width="30" height="30" as="geometry" />
        </mxCell>
        <mxCell id="rUq6iCi893aIcEsaKGVk-8" value="&lt;p style=&quot;margin:0px;margin-top:4px;text-align:center;&quot;&gt;&lt;b&gt;UserSubsystem&lt;/b&gt;&lt;/p&gt;&lt;hr style=&quot;border-style:solid;&quot;&gt;&lt;p style=&quot;margin:0px;margin-left:4px;&quot;&gt;&lt;br&gt;&lt;br&gt;&lt;/p&gt;&lt;hr style=&quot;border-style:solid;&quot;&gt;&lt;p style=&quot;margin:0px;margin-left:4px;&quot;&gt;+checkLogin(userName: String, password: String) boolean&lt;/p&gt;" style="verticalAlign=top;align=left;overflow=fill;html=1;whiteSpace=wrap;fontSize=14;" parent="1" vertex="1">
          <mxGeometry x="750" y="522" width="190" height="210" as="geometry" />
        </mxCell>
        <mxCell id="rUq6iCi893aIcEsaKGVk-9" value="1" style="text;html=1;align=center;verticalAlign=middle;resizable=0;points=[];autosize=1;strokeColor=none;fillColor=none;fontSize=14;" parent="1" vertex="1">
          <mxGeometry x="490" y="580" width="30" height="30" as="geometry" />
        </mxCell>
        <mxCell id="rUq6iCi893aIcEsaKGVk-10" value="1" style="text;html=1;align=center;verticalAlign=middle;resizable=0;points=[];autosize=1;strokeColor=none;fillColor=none;fontSize=14;" parent="1" vertex="1">
          <mxGeometry x="725" y="600" width="30" height="30" as="geometry" />
        </mxCell>
      </root>
    </mxGraphModel>
  </diagram>
  <diagram id="B2ftA8MdcVmmoGMZo20v" name="Quên mật khẩu">
    <mxGraphModel dx="1360" dy="843" grid="1" gridSize="10" guides="1" tooltips="1" connect="1" arrows="1" fold="1" page="1" pageScale="1" pageWidth="850" pageHeight="1100" math="0" shadow="0">
      <root>
        <mxCell id="0" />
        <mxCell id="1" parent="0" />
        <mxCell id="AB7EZDm52HKVU5X_UInv-1" value="User" style="shape=umlActor;verticalLabelPosition=bottom;verticalAlign=top;html=1;fontSize=14;" parent="1" vertex="1">
          <mxGeometry x="335" y="380" width="30" height="60" as="geometry" />
        </mxCell>
        <mxCell id="AB7EZDm52HKVU5X_UInv-2" value="" style="endArrow=none;dashed=1;html=1;rounded=0;fontSize=14;" parent="1" edge="1">
          <mxGeometry width="50" height="50" relative="1" as="geometry">
            <mxPoint x="350" y="1380" as="sourcePoint" />
            <mxPoint x="350" y="468" as="targetPoint" />
          </mxGeometry>
        </mxCell>
        <mxCell id="AB7EZDm52HKVU5X_UInv-3" value="" style="html=1;points=[[0,0,0,0,5],[0,1,0,0,-5],[1,0,0,0,5],[1,1,0,0,-5]];perimeter=orthogonalPerimeter;outlineConnect=0;targetShapes=umlLifeline;portConstraint=eastwest;newEdgeStyle={&quot;curved&quot;:0,&quot;rounded&quot;:0};fontSize=14;" parent="1" vertex="1">
          <mxGeometry x="345" y="478" width="10" height="782" as="geometry" />
        </mxCell>
        <mxCell id="AB7EZDm52HKVU5X_UInv-4" value="" style="endArrow=none;dashed=1;html=1;rounded=0;fontSize=14;" parent="1" edge="1">
          <mxGeometry width="50" height="50" relative="1" as="geometry">
            <mxPoint x="505" y="1380" as="sourcePoint" />
            <mxPoint x="505" y="468" as="targetPoint" />
          </mxGeometry>
        </mxCell>
        <mxCell id="AB7EZDm52HKVU5X_UInv-5" value="" style="html=1;points=[[0,0,0,0,5],[0,1,0,0,-5],[1,0,0,0,5],[1,1,0,0,-5]];perimeter=orthogonalPerimeter;outlineConnect=0;targetShapes=umlLifeline;portConstraint=eastwest;newEdgeStyle={&quot;curved&quot;:0,&quot;rounded&quot;:0};fontSize=14;" parent="1" vertex="1">
          <mxGeometry x="500" y="478" width="10" height="782" as="geometry" />
        </mxCell>
        <mxCell id="AB7EZDm52HKVU5X_UInv-6" value="enterInfo()" style="html=1;verticalAlign=bottom;endArrow=block;curved=0;rounded=0;fontSize=14;" parent="1" source="AB7EZDm52HKVU5X_UInv-3" target="AB7EZDm52HKVU5X_UInv-5" edge="1">
          <mxGeometry width="80" relative="1" as="geometry">
            <mxPoint x="495" y="628" as="sourcePoint" />
            <mxPoint x="575" y="628" as="targetPoint" />
            <Array as="points">
              <mxPoint x="425" y="508" />
            </Array>
          </mxGeometry>
        </mxCell>
        <mxCell id="AB7EZDm52HKVU5X_UInv-7" value="showAlert()" style="html=1;verticalAlign=bottom;endArrow=block;curved=0;rounded=0;fontSize=14;" parent="1" source="AB7EZDm52HKVU5X_UInv-5" target="AB7EZDm52HKVU5X_UInv-3" edge="1">
          <mxGeometry width="80" relative="1" as="geometry">
            <mxPoint x="495" y="538" as="sourcePoint" />
            <mxPoint x="605" y="488" as="targetPoint" />
            <Array as="points">
              <mxPoint x="425" y="578" />
            </Array>
          </mxGeometry>
        </mxCell>
        <mxCell id="AB7EZDm52HKVU5X_UInv-8" value="checkValid()" style="html=1;align=left;spacingLeft=2;endArrow=block;rounded=0;edgeStyle=orthogonalEdgeStyle;curved=0;rounded=0;fontSize=14;" parent="1" source="AB7EZDm52HKVU5X_UInv-5" target="AB7EZDm52HKVU5X_UInv-5" edge="1">
          <mxGeometry relative="1" as="geometry">
            <mxPoint x="595" y="478" as="sourcePoint" />
            <Array as="points">
              <mxPoint x="530" y="518" />
              <mxPoint x="530" y="538" />
            </Array>
            <mxPoint x="600" y="508.02857142857147" as="targetPoint" />
          </mxGeometry>
        </mxCell>
        <mxCell id="AB7EZDm52HKVU5X_UInv-9" value="checkValid()" style="shape=umlFrame;whiteSpace=wrap;html=1;pointerEvents=0;width=90;height=30;fontSize=14;" parent="1" vertex="1">
          <mxGeometry x="215" y="548" width="1005" height="772" as="geometry" />
        </mxCell>
        <mxCell id="AB7EZDm52HKVU5X_UInv-10" value="" style="endArrow=none;dashed=1;html=1;rounded=0;fontSize=14;entryX=0.999;entryY=0.078;entryDx=0;entryDy=0;entryPerimeter=0;" parent="1" target="AB7EZDm52HKVU5X_UInv-9" edge="1">
          <mxGeometry width="50" height="50" relative="1" as="geometry">
            <mxPoint x="215" y="608" as="sourcePoint" />
            <mxPoint x="1037" y="608" as="targetPoint" />
          </mxGeometry>
        </mxCell>
        <mxCell id="AB7EZDm52HKVU5X_UInv-11" value="[Invalid]" style="text;html=1;align=center;verticalAlign=middle;resizable=0;points=[];autosize=1;strokeColor=none;fillColor=none;fontSize=14;" parent="1" vertex="1">
          <mxGeometry x="210" y="576" width="70" height="30" as="geometry" />
        </mxCell>
        <mxCell id="AB7EZDm52HKVU5X_UInv-12" value="[Valid]" style="text;html=1;align=center;verticalAlign=middle;resizable=0;points=[];autosize=1;strokeColor=none;fillColor=none;fontSize=14;" parent="1" vertex="1">
          <mxGeometry x="215" y="606" width="60" height="30" as="geometry" />
        </mxCell>
        <mxCell id="AB7EZDm52HKVU5X_UInv-13" value="" style="endArrow=none;dashed=1;html=1;rounded=0;fontSize=14;" parent="1" edge="1">
          <mxGeometry width="50" height="50" relative="1" as="geometry">
            <mxPoint x="740" y="1380" as="sourcePoint" />
            <mxPoint x="740" y="468" as="targetPoint" />
          </mxGeometry>
        </mxCell>
        <mxCell id="AB7EZDm52HKVU5X_UInv-14" value="sendCode()" style="html=1;verticalAlign=bottom;endArrow=block;curved=0;rounded=0;fontSize=14;" parent="1" target="AB7EZDm52HKVU5X_UInv-15" edge="1">
          <mxGeometry width="80" relative="1" as="geometry">
            <mxPoint x="510" y="654" as="sourcePoint" />
            <mxPoint x="615" y="654" as="targetPoint" />
            <Array as="points">
              <mxPoint x="595" y="654" />
            </Array>
          </mxGeometry>
        </mxCell>
        <mxCell id="AB7EZDm52HKVU5X_UInv-15" value="" style="html=1;points=[[0,0,0,0,5],[0,1,0,0,-5],[1,0,0,0,5],[1,1,0,0,-5]];perimeter=orthogonalPerimeter;outlineConnect=0;targetShapes=umlLifeline;portConstraint=eastwest;newEdgeStyle={&quot;curved&quot;:0,&quot;rounded&quot;:0};fontSize=14;" parent="1" vertex="1">
          <mxGeometry x="735" y="632" width="10" height="588" as="geometry" />
        </mxCell>
        <mxCell id="AB7EZDm52HKVU5X_UInv-16" value="success" style="html=1;verticalAlign=bottom;endArrow=open;dashed=1;endSize=8;curved=0;rounded=0;fontSize=14;" parent="1" edge="1">
          <mxGeometry relative="1" as="geometry">
            <mxPoint x="510" y="830" as="targetPoint" />
            <mxPoint x="737" y="830" as="sourcePoint" />
            <Array as="points">
              <mxPoint x="581" y="830" />
            </Array>
          </mxGeometry>
        </mxCell>
        <mxCell id="AB7EZDm52HKVU5X_UInv-17" value="showSuccess()" style="html=1;verticalAlign=bottom;endArrow=block;curved=0;rounded=0;fontSize=14;" parent="1" edge="1">
          <mxGeometry width="80" relative="1" as="geometry">
            <mxPoint x="500" y="860" as="sourcePoint" />
            <mxPoint x="355" y="860" as="targetPoint" />
            <Array as="points">
              <mxPoint x="425" y="860" />
            </Array>
          </mxGeometry>
        </mxCell>
        <mxCell id="AB7EZDm52HKVU5X_UInv-18" value="" style="endArrow=none;dashed=1;html=1;rounded=0;fontSize=14;" parent="1" edge="1">
          <mxGeometry width="50" height="50" relative="1" as="geometry">
            <mxPoint x="980" y="1380" as="sourcePoint" />
            <mxPoint x="982" y="469" as="targetPoint" />
          </mxGeometry>
        </mxCell>
        <mxCell id="AB7EZDm52HKVU5X_UInv-19" value="" style="html=1;points=[[0,0,0,0,5],[0,1,0,0,-5],[1,0,0,0,5],[1,1,0,0,-5]];perimeter=orthogonalPerimeter;outlineConnect=0;targetShapes=umlLifeline;portConstraint=eastwest;newEdgeStyle={&quot;curved&quot;:0,&quot;rounded&quot;:0};fontSize=14;" parent="1" vertex="1">
          <mxGeometry x="975" y="1080" width="10" height="80" as="geometry" />
        </mxCell>
        <mxCell id="AB7EZDm52HKVU5X_UInv-20" value="&lt;span&gt;:ChangePasswordView&lt;/span&gt;" style="html=1;whiteSpace=wrap;fontSize=14;" parent="1" vertex="1">
          <mxGeometry x="420" y="413" width="160" height="50" as="geometry" />
        </mxCell>
        <mxCell id="AB7EZDm52HKVU5X_UInv-21" value="&lt;span&gt;:ChangePasswordController&lt;/span&gt;" style="html=1;whiteSpace=wrap;fontSize=14;" parent="1" vertex="1">
          <mxGeometry x="648.75" y="413" width="182.5" height="50" as="geometry" />
        </mxCell>
        <mxCell id="AB7EZDm52HKVU5X_UInv-22" value="&lt;span&gt;:UserSubsystem&lt;/span&gt;" style="html=1;whiteSpace=wrap;fontSize=14;" parent="1" vertex="1">
          <mxGeometry x="925" y="413" width="110" height="50" as="geometry" />
        </mxCell>
        <mxCell id="AB7EZDm52HKVU5X_UInv-23" value="false" style="html=1;verticalAlign=bottom;endArrow=open;dashed=1;endSize=8;curved=0;rounded=0;fontSize=14;" parent="1" edge="1">
          <mxGeometry relative="1" as="geometry">
            <mxPoint x="510" y="730" as="targetPoint" />
            <mxPoint x="735" y="730" as="sourcePoint" />
            <Array as="points">
              <mxPoint x="616" y="730" />
            </Array>
          </mxGeometry>
        </mxCell>
        <mxCell id="AB7EZDm52HKVU5X_UInv-24" value="showAlert()" style="html=1;verticalAlign=bottom;endArrow=block;curved=0;rounded=0;fontSize=14;" parent="1" edge="1">
          <mxGeometry width="80" relative="1" as="geometry">
            <mxPoint x="498" y="780" as="sourcePoint" />
            <mxPoint x="353" y="780" as="targetPoint" />
            <Array as="points">
              <mxPoint x="423" y="780" />
            </Array>
          </mxGeometry>
        </mxCell>
        <mxCell id="AB7EZDm52HKVU5X_UInv-25" value="alt" style="shape=umlFrame;whiteSpace=wrap;html=1;pointerEvents=0;fontSize=14;" parent="1" vertex="1">
          <mxGeometry x="275" y="700" width="915" height="600" as="geometry" />
        </mxCell>
        <mxCell id="AB7EZDm52HKVU5X_UInv-26" value="" style="endArrow=none;dashed=1;html=1;rounded=0;exitX=-0.003;exitY=0.259;exitDx=0;exitDy=0;exitPerimeter=0;entryX=1.003;entryY=0.158;entryDx=0;entryDy=0;entryPerimeter=0;fontSize=14;" parent="1" target="AB7EZDm52HKVU5X_UInv-25" edge="1">
          <mxGeometry width="50" height="50" relative="1" as="geometry">
            <mxPoint x="275.0000000000001" y="800" as="sourcePoint" />
            <mxPoint x="1065" y="800" as="targetPoint" />
          </mxGeometry>
        </mxCell>
        <mxCell id="AB7EZDm52HKVU5X_UInv-27" value="[fail]" style="text;html=1;align=center;verticalAlign=middle;resizable=0;points=[];autosize=1;strokeColor=none;fillColor=none;fontSize=14;" parent="1" vertex="1">
          <mxGeometry x="275" y="730" width="50" height="30" as="geometry" />
        </mxCell>
        <mxCell id="AB7EZDm52HKVU5X_UInv-28" value="[success]" style="text;html=1;align=center;verticalAlign=middle;resizable=0;points=[];autosize=1;strokeColor=none;fillColor=none;fontSize=14;" parent="1" vertex="1">
          <mxGeometry x="275" y="800" width="80" height="30" as="geometry" />
        </mxCell>
        <mxCell id="AB7EZDm52HKVU5X_UInv-29" value="sendCode()" style="html=1;align=left;spacingLeft=2;endArrow=block;rounded=0;edgeStyle=orthogonalEdgeStyle;curved=0;rounded=0;fontSize=14;" parent="1" edge="1">
          <mxGeometry relative="1" as="geometry">
            <mxPoint x="745" y="660" as="sourcePoint" />
            <Array as="points">
              <mxPoint x="776" y="660" />
              <mxPoint x="776" y="684" />
            </Array>
            <mxPoint x="745" y="684" as="targetPoint" />
          </mxGeometry>
        </mxCell>
        <mxCell id="AB7EZDm52HKVU5X_UInv-30" value="enterCode()" style="html=1;verticalAlign=bottom;endArrow=block;curved=0;rounded=0;fontSize=14;" parent="1" edge="1">
          <mxGeometry width="80" relative="1" as="geometry">
            <mxPoint x="355" y="920" as="sourcePoint" />
            <mxPoint x="500" y="920" as="targetPoint" />
            <Array as="points">
              <mxPoint x="425" y="920" />
            </Array>
          </mxGeometry>
        </mxCell>
        <mxCell id="AB7EZDm52HKVU5X_UInv-31" value="checkCode()" style="html=1;verticalAlign=bottom;endArrow=block;curved=0;rounded=0;fontSize=14;" parent="1" source="AB7EZDm52HKVU5X_UInv-5" target="AB7EZDm52HKVU5X_UInv-15" edge="1">
          <mxGeometry width="80" relative="1" as="geometry">
            <mxPoint x="530" y="919.5" as="sourcePoint" />
            <mxPoint x="675" y="919.5" as="targetPoint" />
            <Array as="points">
              <mxPoint x="590" y="950" />
            </Array>
          </mxGeometry>
        </mxCell>
        <mxCell id="AB7EZDm52HKVU5X_UInv-32" value="checkCode()" style="html=1;align=left;spacingLeft=2;endArrow=block;rounded=0;edgeStyle=orthogonalEdgeStyle;curved=0;rounded=0;fontSize=14;" parent="1" edge="1">
          <mxGeometry relative="1" as="geometry">
            <mxPoint x="745" y="956" as="sourcePoint" />
            <Array as="points">
              <mxPoint x="776" y="956" />
              <mxPoint x="776" y="980" />
            </Array>
            <mxPoint x="745" y="980" as="targetPoint" />
          </mxGeometry>
        </mxCell>
        <mxCell id="AB7EZDm52HKVU5X_UInv-33" value="success" style="html=1;verticalAlign=bottom;endArrow=open;dashed=1;endSize=8;curved=0;rounded=0;fontSize=14;" parent="1" edge="1">
          <mxGeometry relative="1" as="geometry">
            <mxPoint x="508" y="1000" as="targetPoint" />
            <mxPoint x="735" y="1000" as="sourcePoint" />
            <Array as="points">
              <mxPoint x="579" y="1000" />
            </Array>
          </mxGeometry>
        </mxCell>
        <mxCell id="AB7EZDm52HKVU5X_UInv-34" value="showSuccess()" style="html=1;verticalAlign=bottom;endArrow=block;curved=0;rounded=0;fontSize=14;" parent="1" edge="1">
          <mxGeometry width="80" relative="1" as="geometry">
            <mxPoint x="500" y="1020" as="sourcePoint" />
            <mxPoint x="355" y="1020" as="targetPoint" />
            <Array as="points">
              <mxPoint x="425" y="1020" />
            </Array>
          </mxGeometry>
        </mxCell>
        <mxCell id="AB7EZDm52HKVU5X_UInv-35" value="enterNewPassword()" style="html=1;verticalAlign=bottom;endArrow=block;curved=0;rounded=0;fontSize=14;" parent="1" edge="1">
          <mxGeometry width="80" relative="1" as="geometry">
            <mxPoint x="355" y="1070" as="sourcePoint" />
            <mxPoint x="500" y="1070" as="targetPoint" />
            <Array as="points">
              <mxPoint x="425" y="1070" />
            </Array>
          </mxGeometry>
        </mxCell>
        <mxCell id="AB7EZDm52HKVU5X_UInv-36" value="changePassword()" style="html=1;verticalAlign=bottom;endArrow=block;curved=0;rounded=0;fontSize=14;" parent="1" target="AB7EZDm52HKVU5X_UInv-15" edge="1">
          <mxGeometry width="80" relative="1" as="geometry">
            <mxPoint x="510" y="1090" as="sourcePoint" />
            <mxPoint x="660" y="1090" as="targetPoint" />
            <Array as="points">
              <mxPoint x="569" y="1090" />
            </Array>
          </mxGeometry>
        </mxCell>
        <mxCell id="AB7EZDm52HKVU5X_UInv-37" value="changePassword()" style="html=1;verticalAlign=bottom;endArrow=block;curved=0;rounded=0;fontSize=14;" parent="1" target="AB7EZDm52HKVU5X_UInv-19" edge="1">
          <mxGeometry width="80" relative="1" as="geometry">
            <mxPoint x="745" y="1100" as="sourcePoint" />
            <mxPoint x="970" y="1100" as="targetPoint" />
            <Array as="points">
              <mxPoint x="804" y="1100" />
            </Array>
          </mxGeometry>
        </mxCell>
        <mxCell id="AB7EZDm52HKVU5X_UInv-38" value="success" style="html=1;verticalAlign=bottom;endArrow=open;dashed=1;endSize=8;curved=0;rounded=0;fontSize=14;" parent="1" edge="1">
          <mxGeometry relative="1" as="geometry">
            <mxPoint x="745" y="1150" as="targetPoint" />
            <mxPoint x="972" y="1150" as="sourcePoint" />
            <Array as="points">
              <mxPoint x="816" y="1150" />
            </Array>
          </mxGeometry>
        </mxCell>
        <mxCell id="AB7EZDm52HKVU5X_UInv-39" value="success" style="html=1;verticalAlign=bottom;endArrow=open;dashed=1;endSize=8;curved=0;rounded=0;fontSize=14;" parent="1" edge="1">
          <mxGeometry relative="1" as="geometry">
            <mxPoint x="508" y="1180" as="targetPoint" />
            <mxPoint x="735" y="1180" as="sourcePoint" />
            <Array as="points">
              <mxPoint x="579" y="1180" />
            </Array>
          </mxGeometry>
        </mxCell>
        <mxCell id="AB7EZDm52HKVU5X_UInv-40" value="showSuccess()" style="html=1;verticalAlign=bottom;endArrow=block;curved=0;rounded=0;fontSize=14;" parent="1" edge="1">
          <mxGeometry width="80" relative="1" as="geometry">
            <mxPoint x="500" y="1220" as="sourcePoint" />
            <mxPoint x="355" y="1220" as="targetPoint" />
            <Array as="points">
              <mxPoint x="425" y="1220" />
            </Array>
          </mxGeometry>
        </mxCell>
        <mxCell id="qQlZCZ1bciod04DqcRN--1" value="" style="endArrow=none;dashed=1;html=1;rounded=0;fontSize=14;" edge="1" parent="1" source="qQlZCZ1bciod04DqcRN--4">
          <mxGeometry width="50" height="50" relative="1" as="geometry">
            <mxPoint x="1165" y="1200" as="sourcePoint" />
            <mxPoint x="1165" y="470" as="targetPoint" />
          </mxGeometry>
        </mxCell>
        <mxCell id="qQlZCZ1bciod04DqcRN--2" value="UserDatabase" style="shape=umlActor;verticalLabelPosition=bottom;verticalAlign=top;html=1;fontSize=14;" vertex="1" parent="1">
          <mxGeometry x="1150" y="380" width="30" height="60" as="geometry" />
        </mxCell>
        <mxCell id="qQlZCZ1bciod04DqcRN--3" value="" style="endArrow=none;dashed=1;html=1;rounded=0;fontSize=14;" edge="1" parent="1" target="qQlZCZ1bciod04DqcRN--4">
          <mxGeometry width="50" height="50" relative="1" as="geometry">
            <mxPoint x="1160" y="1380" as="sourcePoint" />
            <mxPoint x="1165" y="470" as="targetPoint" />
          </mxGeometry>
        </mxCell>
        <mxCell id="qQlZCZ1bciod04DqcRN--4" value="" style="html=1;points=[[0,0,0,0,5],[0,1,0,0,-5],[1,0,0,0,5],[1,1,0,0,-5]];perimeter=orthogonalPerimeter;outlineConnect=0;targetShapes=umlLifeline;portConstraint=eastwest;newEdgeStyle={&quot;curved&quot;:0,&quot;rounded&quot;:0};fontSize=14;" vertex="1" parent="1">
          <mxGeometry x="1160" y="1090" width="10" height="80" as="geometry" />
        </mxCell>
        <mxCell id="qQlZCZ1bciod04DqcRN--5" value="changePassword()" style="html=1;verticalAlign=bottom;endArrow=block;curved=0;rounded=0;fontSize=14;" edge="1" parent="1">
          <mxGeometry width="80" relative="1" as="geometry">
            <mxPoint x="985" y="1110" as="sourcePoint" />
            <mxPoint x="1160" y="1110" as="targetPoint" />
            <Array as="points">
              <mxPoint x="1009" y="1110" />
            </Array>
          </mxGeometry>
        </mxCell>
        <mxCell id="qQlZCZ1bciod04DqcRN--6" value="success" style="html=1;verticalAlign=bottom;endArrow=open;dashed=1;endSize=8;curved=0;rounded=0;fontSize=14;" edge="1" parent="1" source="qQlZCZ1bciod04DqcRN--4" target="AB7EZDm52HKVU5X_UInv-19">
          <mxGeometry relative="1" as="geometry">
            <mxPoint x="923" y="1140" as="targetPoint" />
            <mxPoint x="1150" y="1140" as="sourcePoint" />
            <Array as="points">
              <mxPoint x="994" y="1140" />
            </Array>
          </mxGeometry>
        </mxCell>
      </root>
    </mxGraphModel>
  </diagram>
  <diagram id="aasTeGcExRZC2_5GIt1V" name="Lớp quên mật khẩu">
    <mxGraphModel dx="1362" dy="843" grid="1" gridSize="10" guides="1" tooltips="1" connect="1" arrows="1" fold="1" page="1" pageScale="1" pageWidth="850" pageHeight="1100" math="0" shadow="0">
      <root>
        <mxCell id="0" />
        <mxCell id="1" parent="0" />
        <mxCell id="x3f0nxUf7tzE7lzlHFzL-1" style="edgeStyle=orthogonalEdgeStyle;rounded=0;orthogonalLoop=1;jettySize=auto;html=1;endArrow=none;startFill=0;fontSize=14;" parent="1" source="x3f0nxUf7tzE7lzlHFzL-2" target="x3f0nxUf7tzE7lzlHFzL-5" edge="1">
          <mxGeometry relative="1" as="geometry">
            <mxPoint x="510" y="362" as="targetPoint" />
          </mxGeometry>
        </mxCell>
        <mxCell id="x3f0nxUf7tzE7lzlHFzL-2" value="&lt;p style=&quot;margin:0px;margin-top:4px;text-align:center;&quot;&gt;&lt;span style=&quot;background-color: transparent; text-align: left;&quot;&gt;&lt;b&gt;ChangePasswordView&lt;/b&gt;&lt;/span&gt;&lt;/p&gt;&lt;hr style=&quot;border-style:solid;&quot;&gt;&lt;p style=&quot;margin:0px;margin-left:4px;&quot;&gt;&lt;br&gt;&lt;br&gt;&lt;/p&gt;&lt;hr style=&quot;border-style:solid;&quot;&gt;&lt;p style=&quot;margin:0px;margin-left:4px;&quot;&gt;+enterPhoneNumber(phoneNumber: String) void&lt;/p&gt;&lt;p style=&quot;margin:0px;margin-left:4px;&quot;&gt;+displayForm() void&lt;/p&gt;&lt;p style=&quot;margin:0px;margin-left:4px;&quot;&gt;+checkValid(phoneNumber: String) boolean&lt;/p&gt;&lt;p style=&quot;margin:0px;margin-left:4px;&quot;&gt;+showAlert() void&lt;/p&gt;&lt;p style=&quot;margin:0px;margin-left:4px;&quot;&gt;+enterCode(code: String) void&lt;/p&gt;&lt;p style=&quot;margin:0px;margin-left:4px;&quot;&gt;+enterPassword(password: String) void&lt;/p&gt;" style="verticalAlign=top;align=left;overflow=fill;html=1;whiteSpace=wrap;fontSize=14;" parent="1" vertex="1">
          <mxGeometry x="250" y="512" width="290" height="208" as="geometry" />
        </mxCell>
        <mxCell id="x3f0nxUf7tzE7lzlHFzL-3" value="1" style="text;html=1;align=center;verticalAlign=middle;resizable=0;points=[];autosize=1;strokeColor=none;fillColor=none;fontSize=14;" parent="1" vertex="1">
          <mxGeometry x="360" y="482" width="30" height="30" as="geometry" />
        </mxCell>
        <mxCell id="x3f0nxUf7tzE7lzlHFzL-4" style="edgeStyle=orthogonalEdgeStyle;rounded=0;orthogonalLoop=1;jettySize=auto;html=1;endArrow=none;startFill=0;fontSize=14;" parent="1" source="x3f0nxUf7tzE7lzlHFzL-5" target="x3f0nxUf7tzE7lzlHFzL-7" edge="1">
          <mxGeometry relative="1" as="geometry" />
        </mxCell>
        <mxCell id="x3f0nxUf7tzE7lzlHFzL-5" value="&lt;p style=&quot;margin:0px;margin-top:4px;text-align:center;&quot;&gt;&lt;b&gt;ChangePasswordController&lt;/b&gt;&lt;/p&gt;&lt;hr style=&quot;border-style:solid;&quot;&gt;&lt;p style=&quot;margin:0px;margin-left:4px;&quot;&gt;&lt;br&gt;&lt;br&gt;&lt;/p&gt;&lt;hr style=&quot;border-style:solid;&quot;&gt;&lt;p style=&quot;margin:0px;margin-left:4px;&quot;&gt;+sendCode(phoneNumber: String) String&lt;/p&gt;&lt;p style=&quot;margin:0px;margin-left:4px;&quot;&gt;+checkCode(code: String) boolean&lt;/p&gt;&lt;p style=&quot;margin:0px;margin-left:4px;&quot;&gt;+changePassword(phoneNumber: String, code: String) boolean&lt;/p&gt;" style="verticalAlign=top;align=left;overflow=fill;html=1;whiteSpace=wrap;fontSize=14;" parent="1" vertex="1">
          <mxGeometry x="340" y="180" width="250" height="210" as="geometry" />
        </mxCell>
        <mxCell id="x3f0nxUf7tzE7lzlHFzL-6" value="1" style="text;html=1;align=center;verticalAlign=middle;resizable=0;points=[];autosize=1;strokeColor=none;fillColor=none;fontSize=14;" parent="1" vertex="1">
          <mxGeometry x="490" y="392" width="30" height="30" as="geometry" />
        </mxCell>
        <mxCell id="x3f0nxUf7tzE7lzlHFzL-7" value="&lt;p style=&quot;margin:0px;margin-top:4px;text-align:center;&quot;&gt;&lt;b&gt;UserSubsystem&lt;/b&gt;&lt;/p&gt;&lt;hr style=&quot;border-style:solid;&quot;&gt;&lt;p style=&quot;margin:0px;margin-left:4px;&quot;&gt;&lt;br&gt;&lt;br&gt;&lt;/p&gt;&lt;hr style=&quot;border-style:solid;&quot;&gt;&lt;p style=&quot;margin:0px;margin-left:4px;&quot;&gt;+changePassword(phoneNumber: String) boolean&lt;/p&gt;" style="verticalAlign=top;align=left;overflow=fill;html=1;whiteSpace=wrap;fontSize=14;" parent="1" vertex="1">
          <mxGeometry x="860" y="192" width="230" height="210" as="geometry" />
        </mxCell>
        <mxCell id="x3f0nxUf7tzE7lzlHFzL-8" value="1" style="text;html=1;align=center;verticalAlign=middle;resizable=0;points=[];autosize=1;strokeColor=none;fillColor=none;fontSize=14;" parent="1" vertex="1">
          <mxGeometry x="590" y="260" width="30" height="30" as="geometry" />
        </mxCell>
        <mxCell id="x3f0nxUf7tzE7lzlHFzL-9" value="1" style="text;html=1;align=center;verticalAlign=middle;resizable=0;points=[];autosize=1;strokeColor=none;fillColor=none;fontSize=14;" parent="1" vertex="1">
          <mxGeometry x="835" y="270" width="30" height="30" as="geometry" />
        </mxCell>
      </root>
    </mxGraphModel>
  </diagram>
  <diagram id="5ZXoOVbiSDfRSYq_pRfP" name="Thay đổi thông tin">
    <mxGraphModel dx="510" dy="843" grid="1" gridSize="10" guides="1" tooltips="1" connect="1" arrows="1" fold="1" page="1" pageScale="1" pageWidth="850" pageHeight="1100" math="0" shadow="0">
      <root>
        <mxCell id="0" />
        <mxCell id="1" parent="0" />
        <mxCell id="-X7ZQyZjF1fBQVbpQAxd-1" value="User" style="shape=umlActor;verticalLabelPosition=bottom;verticalAlign=top;html=1;fontSize=14;" parent="1" vertex="1">
          <mxGeometry x="1655" y="520" width="30" height="60" as="geometry" />
        </mxCell>
        <mxCell id="-X7ZQyZjF1fBQVbpQAxd-2" value="" style="endArrow=none;dashed=1;html=1;rounded=0;fontSize=14;" parent="1" edge="1">
          <mxGeometry width="50" height="50" relative="1" as="geometry">
            <mxPoint x="1670" y="1160" as="sourcePoint" />
            <mxPoint x="1670" y="608" as="targetPoint" />
          </mxGeometry>
        </mxCell>
        <mxCell id="-X7ZQyZjF1fBQVbpQAxd-3" value="" style="html=1;points=[[0,0,0,0,5],[0,1,0,0,-5],[1,0,0,0,5],[1,1,0,0,-5]];perimeter=orthogonalPerimeter;outlineConnect=0;targetShapes=umlLifeline;portConstraint=eastwest;newEdgeStyle={&quot;curved&quot;:0,&quot;rounded&quot;:0};fontSize=14;" parent="1" vertex="1">
          <mxGeometry x="1665" y="618" width="10" height="452" as="geometry" />
        </mxCell>
        <mxCell id="-X7ZQyZjF1fBQVbpQAxd-4" value="" style="endArrow=none;dashed=1;html=1;rounded=0;fontSize=14;" parent="1" edge="1">
          <mxGeometry width="50" height="50" relative="1" as="geometry">
            <mxPoint x="1825" y="1160" as="sourcePoint" />
            <mxPoint x="1825" y="608" as="targetPoint" />
          </mxGeometry>
        </mxCell>
        <mxCell id="-X7ZQyZjF1fBQVbpQAxd-5" value="" style="html=1;points=[[0,0,0,0,5],[0,1,0,0,-5],[1,0,0,0,5],[1,1,0,0,-5]];perimeter=orthogonalPerimeter;outlineConnect=0;targetShapes=umlLifeline;portConstraint=eastwest;newEdgeStyle={&quot;curved&quot;:0,&quot;rounded&quot;:0};fontSize=14;" parent="1" vertex="1">
          <mxGeometry x="1820" y="618" width="10" height="452" as="geometry" />
        </mxCell>
        <mxCell id="-X7ZQyZjF1fBQVbpQAxd-6" value="enterNewInfo()" style="html=1;verticalAlign=bottom;endArrow=block;curved=0;rounded=0;fontSize=14;" parent="1" source="-X7ZQyZjF1fBQVbpQAxd-3" target="-X7ZQyZjF1fBQVbpQAxd-5" edge="1">
          <mxGeometry width="80" relative="1" as="geometry">
            <mxPoint x="1815" y="768" as="sourcePoint" />
            <mxPoint x="1895" y="768" as="targetPoint" />
            <Array as="points">
              <mxPoint x="1745" y="648" />
            </Array>
          </mxGeometry>
        </mxCell>
        <mxCell id="-X7ZQyZjF1fBQVbpQAxd-7" value="showAlert()" style="html=1;verticalAlign=bottom;endArrow=block;curved=0;rounded=0;fontSize=14;" parent="1" source="-X7ZQyZjF1fBQVbpQAxd-5" target="-X7ZQyZjF1fBQVbpQAxd-3" edge="1">
          <mxGeometry width="80" relative="1" as="geometry">
            <mxPoint x="1815" y="678" as="sourcePoint" />
            <mxPoint x="1925" y="628" as="targetPoint" />
            <Array as="points">
              <mxPoint x="1745" y="718" />
            </Array>
          </mxGeometry>
        </mxCell>
        <mxCell id="-X7ZQyZjF1fBQVbpQAxd-8" value="checkValid()" style="html=1;align=left;spacingLeft=2;endArrow=block;rounded=0;edgeStyle=orthogonalEdgeStyle;curved=0;rounded=0;fontSize=14;" parent="1" source="-X7ZQyZjF1fBQVbpQAxd-5" target="-X7ZQyZjF1fBQVbpQAxd-5" edge="1">
          <mxGeometry relative="1" as="geometry">
            <mxPoint x="1915" y="618" as="sourcePoint" />
            <Array as="points">
              <mxPoint x="1850" y="658" />
              <mxPoint x="1850" y="678" />
            </Array>
            <mxPoint x="1920" y="648.0285714285715" as="targetPoint" />
          </mxGeometry>
        </mxCell>
        <mxCell id="-X7ZQyZjF1fBQVbpQAxd-9" value="checkValid()" style="shape=umlFrame;whiteSpace=wrap;html=1;pointerEvents=0;width=90;height=30;fontSize=14;" parent="1" vertex="1">
          <mxGeometry x="1548" y="690" width="1192" height="410" as="geometry" />
        </mxCell>
        <mxCell id="-X7ZQyZjF1fBQVbpQAxd-10" value="" style="endArrow=none;dashed=1;html=1;rounded=0;fontSize=14;entryX=1.003;entryY=0.132;entryDx=0;entryDy=0;entryPerimeter=0;exitX=-0.029;exitY=1.067;exitDx=0;exitDy=0;exitPerimeter=0;" parent="1" source="-X7ZQyZjF1fBQVbpQAxd-11" target="-X7ZQyZjF1fBQVbpQAxd-9" edge="1">
          <mxGeometry width="50" height="50" relative="1" as="geometry">
            <mxPoint x="1535" y="748" as="sourcePoint" />
            <mxPoint x="2357" y="748" as="targetPoint" />
          </mxGeometry>
        </mxCell>
        <mxCell id="-X7ZQyZjF1fBQVbpQAxd-11" value="[Invalid]" style="text;html=1;align=center;verticalAlign=middle;resizable=0;points=[];autosize=1;strokeColor=none;fillColor=none;fontSize=14;" parent="1" vertex="1">
          <mxGeometry x="1548" y="716" width="70" height="30" as="geometry" />
        </mxCell>
        <mxCell id="-X7ZQyZjF1fBQVbpQAxd-12" value="[Valid]" style="text;html=1;align=center;verticalAlign=middle;resizable=0;points=[];autosize=1;strokeColor=none;fillColor=none;fontSize=14;" parent="1" vertex="1">
          <mxGeometry x="1550" y="746" width="60" height="30" as="geometry" />
        </mxCell>
        <mxCell id="-X7ZQyZjF1fBQVbpQAxd-13" value="" style="endArrow=none;dashed=1;html=1;rounded=0;fontSize=14;" parent="1" edge="1">
          <mxGeometry width="50" height="50" relative="1" as="geometry">
            <mxPoint x="2060" y="1160" as="sourcePoint" />
            <mxPoint x="2060" y="608" as="targetPoint" />
          </mxGeometry>
        </mxCell>
        <mxCell id="-X7ZQyZjF1fBQVbpQAxd-14" value="changeInfo()" style="html=1;verticalAlign=bottom;endArrow=block;curved=0;rounded=0;fontSize=14;" parent="1" target="-X7ZQyZjF1fBQVbpQAxd-15" edge="1">
          <mxGeometry width="80" relative="1" as="geometry">
            <mxPoint x="1830" y="794" as="sourcePoint" />
            <mxPoint x="1935" y="794" as="targetPoint" />
            <Array as="points">
              <mxPoint x="1915" y="794" />
            </Array>
          </mxGeometry>
        </mxCell>
        <mxCell id="-X7ZQyZjF1fBQVbpQAxd-15" value="" style="html=1;points=[[0,0,0,0,5],[0,1,0,0,-5],[1,0,0,0,5],[1,1,0,0,-5]];perimeter=orthogonalPerimeter;outlineConnect=0;targetShapes=umlLifeline;portConstraint=eastwest;newEdgeStyle={&quot;curved&quot;:0,&quot;rounded&quot;:0};fontSize=14;" parent="1" vertex="1">
          <mxGeometry x="2055" y="772" width="10" height="268" as="geometry" />
        </mxCell>
        <mxCell id="-X7ZQyZjF1fBQVbpQAxd-18" value="" style="endArrow=none;dashed=1;html=1;rounded=0;fontSize=14;" parent="1" source="oumvmfAklqxvvESQuDcB-3" edge="1">
          <mxGeometry width="50" height="50" relative="1" as="geometry">
            <mxPoint x="2300" y="1520" as="sourcePoint" />
            <mxPoint x="2302" y="609" as="targetPoint" />
          </mxGeometry>
        </mxCell>
        <mxCell id="-X7ZQyZjF1fBQVbpQAxd-20" value="&lt;span&gt;:ChangeInfoView&lt;/span&gt;" style="html=1;whiteSpace=wrap;fontSize=14;" parent="1" vertex="1">
          <mxGeometry x="1750" y="548" width="150" height="50" as="geometry" />
        </mxCell>
        <mxCell id="-X7ZQyZjF1fBQVbpQAxd-21" value="&lt;span&gt;:ChangeInfoController&lt;/span&gt;" style="html=1;whiteSpace=wrap;fontSize=14;" parent="1" vertex="1">
          <mxGeometry x="1983.75" y="548" width="152.5" height="50" as="geometry" />
        </mxCell>
        <mxCell id="-X7ZQyZjF1fBQVbpQAxd-22" value="&lt;span&gt;:UserSubsystem&lt;/span&gt;" style="html=1;whiteSpace=wrap;fontSize=14;" parent="1" vertex="1">
          <mxGeometry x="2245" y="553" width="110" height="50" as="geometry" />
        </mxCell>
        <mxCell id="-X7ZQyZjF1fBQVbpQAxd-28" value="success" style="html=1;verticalAlign=bottom;endArrow=open;dashed=1;endSize=8;curved=0;rounded=0;fontSize=14;" parent="1" edge="1">
          <mxGeometry relative="1" as="geometry">
            <mxPoint x="1830" y="1008.5" as="targetPoint" />
            <mxPoint x="2057" y="1008.5" as="sourcePoint" />
            <Array as="points">
              <mxPoint x="1901" y="1008.5" />
            </Array>
          </mxGeometry>
        </mxCell>
        <mxCell id="-X7ZQyZjF1fBQVbpQAxd-29" value="showSuccess()" style="html=1;verticalAlign=bottom;endArrow=block;curved=0;rounded=0;fontSize=14;" parent="1" edge="1">
          <mxGeometry width="80" relative="1" as="geometry">
            <mxPoint x="1820" y="1040" as="sourcePoint" />
            <mxPoint x="1675" y="1040" as="targetPoint" />
            <Array as="points">
              <mxPoint x="1745" y="1040" />
            </Array>
          </mxGeometry>
        </mxCell>
        <mxCell id="-X7ZQyZjF1fBQVbpQAxd-36" value="" style="endArrow=none;dashed=1;html=1;rounded=0;fontSize=14;" parent="1" source="-X7ZQyZjF1fBQVbpQAxd-40" edge="1">
          <mxGeometry width="50" height="50" relative="1" as="geometry">
            <mxPoint x="2485" y="1340" as="sourcePoint" />
            <mxPoint x="2485" y="610" as="targetPoint" />
          </mxGeometry>
        </mxCell>
        <mxCell id="-X7ZQyZjF1fBQVbpQAxd-37" value="&lt;span&gt;:User&lt;/span&gt;" style="html=1;whiteSpace=wrap;fontSize=14;" parent="1" vertex="1">
          <mxGeometry x="2430" y="553" width="110" height="50" as="geometry" />
        </mxCell>
        <mxCell id="-X7ZQyZjF1fBQVbpQAxd-38" value="changeInfo()" style="html=1;verticalAlign=bottom;endArrow=block;curved=0;rounded=0;fontSize=14;" parent="1" source="-X7ZQyZjF1fBQVbpQAxd-15" target="-X7ZQyZjF1fBQVbpQAxd-40" edge="1">
          <mxGeometry width="80" relative="1" as="geometry">
            <mxPoint x="2070" y="810" as="sourcePoint" />
            <mxPoint x="2295" y="810" as="targetPoint" />
            <Array as="points">
              <mxPoint x="2155" y="810" />
            </Array>
          </mxGeometry>
        </mxCell>
        <mxCell id="-X7ZQyZjF1fBQVbpQAxd-39" value="" style="endArrow=none;dashed=1;html=1;rounded=0;fontSize=14;" parent="1" target="-X7ZQyZjF1fBQVbpQAxd-40" edge="1">
          <mxGeometry width="50" height="50" relative="1" as="geometry">
            <mxPoint x="2485" y="1160" as="sourcePoint" />
            <mxPoint x="2485" y="610" as="targetPoint" />
          </mxGeometry>
        </mxCell>
        <mxCell id="-X7ZQyZjF1fBQVbpQAxd-40" value="" style="html=1;points=[[0,0,0,0,5],[0,1,0,0,-5],[1,0,0,0,5],[1,1,0,0,-5]];perimeter=orthogonalPerimeter;outlineConnect=0;targetShapes=umlLifeline;portConstraint=eastwest;newEdgeStyle={&quot;curved&quot;:0,&quot;rounded&quot;:0};fontSize=14;" parent="1" vertex="1">
          <mxGeometry x="2480" y="800" width="10" height="80" as="geometry" />
        </mxCell>
        <mxCell id="oumvmfAklqxvvESQuDcB-1" value="success" style="html=1;verticalAlign=bottom;endArrow=open;dashed=1;endSize=8;curved=0;rounded=0;fontSize=14;" parent="1" source="-X7ZQyZjF1fBQVbpQAxd-40" target="-X7ZQyZjF1fBQVbpQAxd-15" edge="1">
          <mxGeometry relative="1" as="geometry">
            <mxPoint x="2100" y="860" as="targetPoint" />
            <mxPoint x="2327" y="860" as="sourcePoint" />
            <Array as="points">
              <mxPoint x="2171" y="860" />
            </Array>
          </mxGeometry>
        </mxCell>
        <mxCell id="oumvmfAklqxvvESQuDcB-2" value="" style="endArrow=none;dashed=1;html=1;rounded=0;fontSize=14;" parent="1" target="oumvmfAklqxvvESQuDcB-3" edge="1">
          <mxGeometry width="50" height="50" relative="1" as="geometry">
            <mxPoint x="2300" y="1160" as="sourcePoint" />
            <mxPoint x="2302" y="609" as="targetPoint" />
          </mxGeometry>
        </mxCell>
        <mxCell id="oumvmfAklqxvvESQuDcB-3" value="" style="html=1;points=[[0,0,0,0,5],[0,1,0,0,-5],[1,0,0,0,5],[1,1,0,0,-5]];perimeter=orthogonalPerimeter;outlineConnect=0;targetShapes=umlLifeline;portConstraint=eastwest;newEdgeStyle={&quot;curved&quot;:0,&quot;rounded&quot;:0};fontSize=14;" parent="1" vertex="1">
          <mxGeometry x="2295" y="910" width="10" height="80" as="geometry" />
        </mxCell>
        <mxCell id="oumvmfAklqxvvESQuDcB-4" value="updateUser()" style="html=1;verticalAlign=bottom;endArrow=block;curved=0;rounded=0;fontSize=14;" parent="1" edge="1">
          <mxGeometry width="80" relative="1" as="geometry">
            <mxPoint x="2065" y="920" as="sourcePoint" />
            <mxPoint x="2295" y="920" as="targetPoint" />
            <Array as="points">
              <mxPoint x="2150" y="920" />
            </Array>
          </mxGeometry>
        </mxCell>
        <mxCell id="oumvmfAklqxvvESQuDcB-5" value="success" style="html=1;verticalAlign=bottom;endArrow=open;dashed=1;endSize=8;curved=0;rounded=0;fontSize=14;" parent="1" source="oumvmfAklqxvvESQuDcB-3" edge="1">
          <mxGeometry relative="1" as="geometry">
            <mxPoint x="2065" y="980" as="targetPoint" />
            <mxPoint x="2295" y="970" as="sourcePoint" />
            <Array as="points">
              <mxPoint x="2136" y="980" />
            </Array>
          </mxGeometry>
        </mxCell>
        <mxCell id="aN5_2fU3XrXKSdD61HLw-1" value="" style="endArrow=none;dashed=1;html=1;rounded=0;fontSize=14;" edge="1" parent="1" source="aN5_2fU3XrXKSdD61HLw-4">
          <mxGeometry width="50" height="50" relative="1" as="geometry">
            <mxPoint x="2675" y="1340" as="sourcePoint" />
            <mxPoint x="2675" y="610" as="targetPoint" />
          </mxGeometry>
        </mxCell>
        <mxCell id="aN5_2fU3XrXKSdD61HLw-2" value="UserDatabase" style="shape=umlActor;verticalLabelPosition=bottom;verticalAlign=top;html=1;fontSize=14;" vertex="1" parent="1">
          <mxGeometry x="2660" y="520" width="30" height="60" as="geometry" />
        </mxCell>
        <mxCell id="aN5_2fU3XrXKSdD61HLw-3" value="" style="endArrow=none;dashed=1;html=1;rounded=0;fontSize=14;" edge="1" parent="1" target="aN5_2fU3XrXKSdD61HLw-4">
          <mxGeometry width="50" height="50" relative="1" as="geometry">
            <mxPoint x="2675" y="1160" as="sourcePoint" />
            <mxPoint x="2675" y="610" as="targetPoint" />
          </mxGeometry>
        </mxCell>
        <mxCell id="aN5_2fU3XrXKSdD61HLw-4" value="" style="html=1;points=[[0,0,0,0,5],[0,1,0,0,-5],[1,0,0,0,5],[1,1,0,0,-5]];perimeter=orthogonalPerimeter;outlineConnect=0;targetShapes=umlLifeline;portConstraint=eastwest;newEdgeStyle={&quot;curved&quot;:0,&quot;rounded&quot;:0};fontSize=14;" vertex="1" parent="1">
          <mxGeometry x="2670" y="810" width="10" height="60" as="geometry" />
        </mxCell>
        <mxCell id="aN5_2fU3XrXKSdD61HLw-9" value="changeInfo()" style="html=1;verticalAlign=bottom;endArrow=block;curved=0;rounded=0;fontSize=14;" edge="1" parent="1">
          <mxGeometry width="80" relative="1" as="geometry">
            <mxPoint x="2490" y="820" as="sourcePoint" />
            <mxPoint x="2670" y="820" as="targetPoint" />
            <Array as="points">
              <mxPoint x="2600" y="820" />
            </Array>
          </mxGeometry>
        </mxCell>
        <mxCell id="aN5_2fU3XrXKSdD61HLw-11" value="success" style="html=1;verticalAlign=bottom;endArrow=open;dashed=1;endSize=8;curved=0;rounded=0;fontSize=14;" edge="1" parent="1">
          <mxGeometry relative="1" as="geometry">
            <mxPoint x="2490" y="850" as="targetPoint" />
            <mxPoint x="2670" y="850" as="sourcePoint" />
            <Array as="points">
              <mxPoint x="2511" y="850" />
            </Array>
          </mxGeometry>
        </mxCell>
      </root>
    </mxGraphModel>
  </diagram>
  <diagram id="Ni5QkcUTU315_5CmW8Mx" name="Lớp thay đổi thông tin">
    <mxGraphModel dx="1362" dy="843" grid="1" gridSize="10" guides="1" tooltips="1" connect="1" arrows="1" fold="1" page="1" pageScale="1" pageWidth="850" pageHeight="1100" math="0" shadow="0">
      <root>
        <mxCell id="0" />
        <mxCell id="1" parent="0" />
        <mxCell id="O04FnWVV-5QfGInzZ-uq-1" style="edgeStyle=orthogonalEdgeStyle;rounded=0;orthogonalLoop=1;jettySize=auto;html=1;endArrow=none;startFill=0;fontSize=14;" parent="1" source="O04FnWVV-5QfGInzZ-uq-2" target="O04FnWVV-5QfGInzZ-uq-5" edge="1">
          <mxGeometry relative="1" as="geometry">
            <mxPoint x="690" y="882" as="targetPoint" />
            <Array as="points">
              <mxPoint x="575" y="971" />
              <mxPoint x="560" y="971" />
            </Array>
          </mxGeometry>
        </mxCell>
        <mxCell id="O04FnWVV-5QfGInzZ-uq-2" value="&lt;p style=&quot;margin:0px;margin-top:4px;text-align:center;&quot;&gt;&lt;span style=&quot;background-color: transparent; text-align: left;&quot;&gt;&lt;b&gt;ChangeInfoView&lt;/b&gt;&lt;/span&gt;&lt;/p&gt;&lt;hr style=&quot;border-style:solid;&quot;&gt;&lt;p style=&quot;margin:0px;margin-left:4px;&quot;&gt;&lt;br&gt;&lt;br&gt;&lt;/p&gt;&lt;hr style=&quot;border-style:solid;&quot;&gt;&lt;p style=&quot;margin:0px;margin-left:4px;&quot;&gt;+enterNewInfo(phoneNumber: String, gmail:&amp;nbsp; String) void&lt;/p&gt;&lt;p style=&quot;margin:0px;margin-left:4px;&quot;&gt;+displayForm() void&lt;/p&gt;&lt;p style=&quot;margin:0px;margin-left:4px;&quot;&gt;+checkValid(phoneNumber: String, gmail: String) boolean&lt;/p&gt;&lt;p style=&quot;margin:0px;margin-left:4px;&quot;&gt;+showAlert() void&lt;/p&gt;" style="verticalAlign=top;align=left;overflow=fill;html=1;whiteSpace=wrap;fontSize=14;" parent="1" vertex="1">
          <mxGeometry x="430" y="1032" width="290" height="208" as="geometry" />
        </mxCell>
        <mxCell id="O04FnWVV-5QfGInzZ-uq-3" value="1" style="text;html=1;align=center;verticalAlign=middle;resizable=0;points=[];autosize=1;strokeColor=none;fillColor=none;fontSize=14;" parent="1" vertex="1">
          <mxGeometry x="540" y="1002" width="30" height="30" as="geometry" />
        </mxCell>
        <mxCell id="O04FnWVV-5QfGInzZ-uq-4" style="edgeStyle=orthogonalEdgeStyle;rounded=0;orthogonalLoop=1;jettySize=auto;html=1;endArrow=none;startFill=0;fontSize=14;" parent="1" source="O04FnWVV-5QfGInzZ-uq-5" target="O04FnWVV-5QfGInzZ-uq-7" edge="1">
          <mxGeometry relative="1" as="geometry" />
        </mxCell>
        <mxCell id="O04FnWVV-5QfGInzZ-uq-5" value="&lt;p style=&quot;margin:0px;margin-top:4px;text-align:center;&quot;&gt;&lt;b&gt;ChangeInfoController&lt;/b&gt;&lt;/p&gt;&lt;hr style=&quot;border-style:solid;&quot;&gt;&lt;p style=&quot;margin:0px;margin-left:4px;&quot;&gt;&lt;br&gt;&lt;br&gt;&lt;/p&gt;&lt;hr style=&quot;border-style:solid;&quot;&gt;&lt;p style=&quot;margin:0px;margin-left:4px;&quot;&gt;+changeInfo(phoneNumber: String, gmail: String) boolean&lt;/p&gt;&lt;p style=&quot;margin:0px;margin-left:4px;&quot;&gt;&lt;br&gt;&lt;/p&gt;" style="verticalAlign=top;align=left;overflow=fill;html=1;whiteSpace=wrap;fontSize=14;" parent="1" vertex="1">
          <mxGeometry x="520" y="700" width="250" height="210" as="geometry" />
        </mxCell>
        <mxCell id="O04FnWVV-5QfGInzZ-uq-6" value="1" style="text;html=1;align=center;verticalAlign=middle;resizable=0;points=[];autosize=1;strokeColor=none;fillColor=none;fontSize=14;" parent="1" vertex="1">
          <mxGeometry x="560" y="910" width="30" height="30" as="geometry" />
        </mxCell>
        <mxCell id="O04FnWVV-5QfGInzZ-uq-7" value="&lt;p style=&quot;margin:0px;margin-top:4px;text-align:center;&quot;&gt;&lt;b&gt;UserSubsystem&lt;/b&gt;&lt;/p&gt;&lt;hr style=&quot;border-style:solid;&quot;&gt;&lt;p style=&quot;margin:0px;margin-left:4px;&quot;&gt;&lt;br&gt;&lt;br&gt;&lt;/p&gt;&lt;hr style=&quot;border-style:solid;&quot;&gt;&lt;p style=&quot;margin:0px;margin-left:4px;&quot;&gt;+updateUser(user: User) User&lt;/p&gt;" style="verticalAlign=top;align=left;overflow=fill;html=1;whiteSpace=wrap;fontSize=14;" parent="1" vertex="1">
          <mxGeometry x="1040" y="712" width="230" height="210" as="geometry" />
        </mxCell>
        <mxCell id="O04FnWVV-5QfGInzZ-uq-8" value="1" style="text;html=1;align=center;verticalAlign=middle;resizable=0;points=[];autosize=1;strokeColor=none;fillColor=none;fontSize=14;" parent="1" vertex="1">
          <mxGeometry x="770" y="780" width="30" height="30" as="geometry" />
        </mxCell>
        <mxCell id="O04FnWVV-5QfGInzZ-uq-9" value="1" style="text;html=1;align=center;verticalAlign=middle;resizable=0;points=[];autosize=1;strokeColor=none;fillColor=none;fontSize=14;" parent="1" vertex="1">
          <mxGeometry x="1015" y="790" width="30" height="30" as="geometry" />
        </mxCell>
        <mxCell id="-cG2UuUaUdYzZK-wfZQT-1" style="edgeStyle=orthogonalEdgeStyle;rounded=0;orthogonalLoop=1;jettySize=auto;html=1;endArrow=open;startFill=0;dashed=1;endFill=0;strokeWidth=1;endSize=12;fontSize=14;" parent="1" edge="1">
          <mxGeometry relative="1" as="geometry">
            <mxPoint x="730" y="910" as="sourcePoint" />
            <mxPoint x="1135" y="1042" as="targetPoint" />
            <Array as="points">
              <mxPoint x="730" y="1000" />
              <mxPoint x="1135" y="1000" />
            </Array>
          </mxGeometry>
        </mxCell>
        <mxCell id="-cG2UuUaUdYzZK-wfZQT-2" value="&lt;p style=&quot;margin:0px;margin-top:4px;text-align:center;&quot;&gt;&lt;b&gt;User&lt;/b&gt;&lt;/p&gt;&lt;hr style=&quot;border-style:solid;&quot;&gt;&lt;p style=&quot;margin:0px;margin-left:4px;&quot;&gt;-username: String&lt;/p&gt;&lt;p style=&quot;margin:0px;margin-left:4px;&quot;&gt;-phoneNumber: String&lt;/p&gt;&lt;p style=&quot;margin:0px;margin-left:4px;&quot;&gt;-gmail: String&lt;/p&gt;&lt;p style=&quot;margin:0px;margin-left:4px;&quot;&gt;-password: String&lt;br&gt;&lt;br&gt;&lt;/p&gt;&lt;hr style=&quot;border-style:solid;&quot;&gt;&lt;p style=&quot;margin:0px;margin-left:4px;&quot;&gt;+getUsername(): String&lt;/p&gt;&lt;p style=&quot;margin:0px;margin-left:4px;&quot;&gt;+getPassword(): String&lt;/p&gt;&lt;p style=&quot;margin:0px;margin-left:4px;&quot;&gt;+getPhoneNumber(): String&lt;/p&gt;&lt;p style=&quot;margin:0px;margin-left:4px;&quot;&gt;+getGmail(): String&lt;/p&gt;&lt;p style=&quot;margin:0px;margin-left:4px;&quot;&gt;+User(username: String, phoneNumber: String, gmail: String, password: String) User&lt;/p&gt;" style="verticalAlign=top;align=left;overflow=fill;html=1;whiteSpace=wrap;fontSize=14;" parent="1" vertex="1">
          <mxGeometry x="1070" y="1042" width="190" height="280" as="geometry" />
        </mxCell>
        <mxCell id="-cG2UuUaUdYzZK-wfZQT-3" value="1" style="text;html=1;align=center;verticalAlign=middle;resizable=0;points=[];autosize=1;strokeColor=none;fillColor=none;fontSize=14;" parent="1" vertex="1">
          <mxGeometry x="730" y="910" width="30" height="30" as="geometry" />
        </mxCell>
        <mxCell id="-cG2UuUaUdYzZK-wfZQT-4" value="1" style="text;html=1;align=center;verticalAlign=middle;resizable=0;points=[];autosize=1;strokeColor=none;fillColor=none;fontSize=14;" parent="1" vertex="1">
          <mxGeometry x="1100" y="1012" width="30" height="30" as="geometry" />
        </mxCell>
      </root>
    </mxGraphModel>
  </diagram>
  <diagram id="kElVVlxpfl6B2fEcmFiX" name="Xóa tài khoản">
    <mxGraphModel dx="1295" dy="803" grid="1" gridSize="10" guides="1" tooltips="1" connect="1" arrows="1" fold="1" page="1" pageScale="1" pageWidth="850" pageHeight="1100" math="0" shadow="0">
      <root>
        <mxCell id="0" />
        <mxCell id="1" parent="0" />
        <mxCell id="4D1L77DrlI71tNCkj2eW-1" value="User" style="shape=umlActor;verticalLabelPosition=bottom;verticalAlign=top;html=1;fontSize=14;" parent="1" vertex="1">
          <mxGeometry x="320" y="281" width="30" height="60" as="geometry" />
        </mxCell>
        <mxCell id="4D1L77DrlI71tNCkj2eW-2" value="" style="endArrow=none;dashed=1;html=1;rounded=0;fontSize=14;" parent="1" edge="1">
          <mxGeometry width="50" height="50" relative="1" as="geometry">
            <mxPoint x="335" y="680" as="sourcePoint" />
            <mxPoint x="335" y="369" as="targetPoint" />
          </mxGeometry>
        </mxCell>
        <mxCell id="4D1L77DrlI71tNCkj2eW-3" value="" style="html=1;points=[[0,0,0,0,5],[0,1,0,0,-5],[1,0,0,0,5],[1,1,0,0,-5]];perimeter=orthogonalPerimeter;outlineConnect=0;targetShapes=umlLifeline;portConstraint=eastwest;newEdgeStyle={&quot;curved&quot;:0,&quot;rounded&quot;:0};fontSize=14;" parent="1" vertex="1">
          <mxGeometry x="330" y="379" width="10" height="261" as="geometry" />
        </mxCell>
        <mxCell id="4D1L77DrlI71tNCkj2eW-5" value="" style="endArrow=none;dashed=1;html=1;rounded=0;fontSize=14;" parent="1" edge="1">
          <mxGeometry width="50" height="50" relative="1" as="geometry">
            <mxPoint x="510" y="680" as="sourcePoint" />
            <mxPoint x="510" y="370" as="targetPoint" />
          </mxGeometry>
        </mxCell>
        <mxCell id="4D1L77DrlI71tNCkj2eW-6" value="" style="html=1;points=[[0,0,0,0,5],[0,1,0,0,-5],[1,0,0,0,5],[1,1,0,0,-5]];perimeter=orthogonalPerimeter;outlineConnect=0;targetShapes=umlLifeline;portConstraint=eastwest;newEdgeStyle={&quot;curved&quot;:0,&quot;rounded&quot;:0};fontSize=14;" parent="1" vertex="1">
          <mxGeometry x="505" y="380" width="10" height="260" as="geometry" />
        </mxCell>
        <mxCell id="4D1L77DrlI71tNCkj2eW-7" value="deleteAccount()" style="html=1;verticalAlign=bottom;endArrow=block;curved=0;rounded=0;fontSize=14;" parent="1" source="4D1L77DrlI71tNCkj2eW-3" target="4D1L77DrlI71tNCkj2eW-6" edge="1">
          <mxGeometry width="80" relative="1" as="geometry">
            <mxPoint x="500" y="530" as="sourcePoint" />
            <mxPoint x="580" y="530" as="targetPoint" />
            <Array as="points">
              <mxPoint x="430" y="410" />
            </Array>
          </mxGeometry>
        </mxCell>
        <mxCell id="4D1L77DrlI71tNCkj2eW-11" value="" style="endArrow=none;dashed=1;html=1;rounded=0;fontSize=14;" parent="1" edge="1">
          <mxGeometry width="50" height="50" relative="1" as="geometry">
            <mxPoint x="700" y="680" as="sourcePoint" />
            <mxPoint x="700" y="370" as="targetPoint" />
          </mxGeometry>
        </mxCell>
        <mxCell id="4D1L77DrlI71tNCkj2eW-12" value="deleteAccount()" style="html=1;verticalAlign=bottom;endArrow=block;curved=0;rounded=0;fontSize=14;" parent="1" target="4D1L77DrlI71tNCkj2eW-13" edge="1">
          <mxGeometry width="80" relative="1" as="geometry">
            <mxPoint x="515" y="462" as="sourcePoint" />
            <mxPoint x="620" y="462" as="targetPoint" />
            <Array as="points">
              <mxPoint x="600" y="462" />
            </Array>
          </mxGeometry>
        </mxCell>
        <mxCell id="4D1L77DrlI71tNCkj2eW-13" value="" style="html=1;points=[[0,0,0,0,5],[0,1,0,0,-5],[1,0,0,0,5],[1,1,0,0,-5]];perimeter=orthogonalPerimeter;outlineConnect=0;targetShapes=umlLifeline;portConstraint=eastwest;newEdgeStyle={&quot;curved&quot;:0,&quot;rounded&quot;:0};fontSize=14;" parent="1" vertex="1">
          <mxGeometry x="695" y="440" width="10" height="182" as="geometry" />
        </mxCell>
        <mxCell id="4D1L77DrlI71tNCkj2eW-14" value="success" style="html=1;verticalAlign=bottom;endArrow=open;dashed=1;endSize=8;curved=0;rounded=0;fontSize=14;" parent="1" source="4D1L77DrlI71tNCkj2eW-13" edge="1">
          <mxGeometry relative="1" as="geometry">
            <mxPoint x="513" y="602" as="targetPoint" />
            <mxPoint x="663" y="602" as="sourcePoint" />
            <Array as="points">
              <mxPoint x="584" y="602" />
            </Array>
          </mxGeometry>
        </mxCell>
        <mxCell id="4D1L77DrlI71tNCkj2eW-15" value="showSuccess()" style="html=1;verticalAlign=bottom;endArrow=block;curved=0;rounded=0;fontSize=14;" parent="1" edge="1">
          <mxGeometry width="80" relative="1" as="geometry">
            <mxPoint x="503" y="614" as="sourcePoint" />
            <mxPoint x="340" y="614" as="targetPoint" />
            <Array as="points">
              <mxPoint x="428" y="614" />
            </Array>
          </mxGeometry>
        </mxCell>
        <mxCell id="4D1L77DrlI71tNCkj2eW-16" value="" style="endArrow=none;dashed=1;html=1;rounded=0;fontSize=14;" parent="1" source="4D1L77DrlI71tNCkj2eW-22" edge="1">
          <mxGeometry width="50" height="50" relative="1" as="geometry">
            <mxPoint x="867" y="1034" as="sourcePoint" />
            <mxPoint x="867" y="376" as="targetPoint" />
          </mxGeometry>
        </mxCell>
        <mxCell id="4D1L77DrlI71tNCkj2eW-21" value="" style="endArrow=none;dashed=1;html=1;rounded=0;fontSize=14;" parent="1" target="4D1L77DrlI71tNCkj2eW-22" edge="1">
          <mxGeometry width="50" height="50" relative="1" as="geometry">
            <mxPoint x="867" y="680" as="sourcePoint" />
            <mxPoint x="867" y="258" as="targetPoint" />
          </mxGeometry>
        </mxCell>
        <mxCell id="4D1L77DrlI71tNCkj2eW-22" value="" style="html=1;points=[[0,0,0,0,5],[0,1,0,0,-5],[1,0,0,0,5],[1,1,0,0,-5]];perimeter=orthogonalPerimeter;outlineConnect=0;targetShapes=umlLifeline;portConstraint=eastwest;newEdgeStyle={&quot;curved&quot;:0,&quot;rounded&quot;:0};fontSize=14;" parent="1" vertex="1">
          <mxGeometry x="860" y="492" width="10" height="80" as="geometry" />
        </mxCell>
        <mxCell id="4D1L77DrlI71tNCkj2eW-29" value="deleteUser()" style="html=1;verticalAlign=bottom;endArrow=block;curved=0;rounded=0;fontSize=14;" parent="1" edge="1">
          <mxGeometry width="80" relative="1" as="geometry">
            <mxPoint x="705" y="492" as="sourcePoint" />
            <mxPoint x="860" y="492" as="targetPoint" />
            <Array as="points" />
          </mxGeometry>
        </mxCell>
        <mxCell id="4D1L77DrlI71tNCkj2eW-30" value="success" style="html=1;verticalAlign=bottom;endArrow=open;dashed=1;endSize=8;curved=0;rounded=0;fontSize=14;" parent="1" source="4D1L77DrlI71tNCkj2eW-22" target="4D1L77DrlI71tNCkj2eW-13" edge="1">
          <mxGeometry relative="1" as="geometry">
            <mxPoint x="675" y="562" as="targetPoint" />
            <mxPoint x="809" y="558.5" as="sourcePoint" />
            <Array as="points">
              <mxPoint x="772" y="562" />
            </Array>
          </mxGeometry>
        </mxCell>
        <mxCell id="6GZuN4rHmdWo08q4FzYZ-1" value="&lt;span&gt;:DeleteAccountView&lt;/span&gt;" style="html=1;whiteSpace=wrap;fontSize=14;" parent="1" vertex="1">
          <mxGeometry x="430" y="310" width="160" height="50" as="geometry" />
        </mxCell>
        <mxCell id="6GZuN4rHmdWo08q4FzYZ-2" value="&lt;span&gt;:DeleteAccountController&lt;/span&gt;" style="html=1;whiteSpace=wrap;fontSize=14;" parent="1" vertex="1">
          <mxGeometry x="620" y="310" width="162.5" height="50" as="geometry" />
        </mxCell>
        <mxCell id="6GZuN4rHmdWo08q4FzYZ-3" value="&lt;span&gt;:UserSubsystem&lt;/span&gt;" style="html=1;whiteSpace=wrap;fontSize=14;" parent="1" vertex="1">
          <mxGeometry x="810" y="310" width="110" height="50" as="geometry" />
        </mxCell>
        <mxCell id="d_K1-7DCapt0TSdlmxxZ-1" value="" style="endArrow=none;dashed=1;html=1;rounded=0;fontSize=14;" edge="1" parent="1" source="d_K1-7DCapt0TSdlmxxZ-4">
          <mxGeometry width="50" height="50" relative="1" as="geometry">
            <mxPoint x="1005" y="1101" as="sourcePoint" />
            <mxPoint x="1005" y="371" as="targetPoint" />
          </mxGeometry>
        </mxCell>
        <mxCell id="d_K1-7DCapt0TSdlmxxZ-2" value="UserDatabase" style="shape=umlActor;verticalLabelPosition=bottom;verticalAlign=top;html=1;fontSize=14;" vertex="1" parent="1">
          <mxGeometry x="990" y="281" width="30" height="60" as="geometry" />
        </mxCell>
        <mxCell id="d_K1-7DCapt0TSdlmxxZ-3" value="" style="endArrow=none;dashed=1;html=1;rounded=0;fontSize=14;" edge="1" parent="1" target="d_K1-7DCapt0TSdlmxxZ-4">
          <mxGeometry width="50" height="50" relative="1" as="geometry">
            <mxPoint x="1005" y="680" as="sourcePoint" />
            <mxPoint x="1005" y="371" as="targetPoint" />
          </mxGeometry>
        </mxCell>
        <mxCell id="d_K1-7DCapt0TSdlmxxZ-4" value="" style="html=1;points=[[0,0,0,0,5],[0,1,0,0,-5],[1,0,0,0,5],[1,1,0,0,-5]];perimeter=orthogonalPerimeter;outlineConnect=0;targetShapes=umlLifeline;portConstraint=eastwest;newEdgeStyle={&quot;curved&quot;:0,&quot;rounded&quot;:0};fontSize=14;" vertex="1" parent="1">
          <mxGeometry x="1000" y="492" width="10" height="60" as="geometry" />
        </mxCell>
        <mxCell id="d_K1-7DCapt0TSdlmxxZ-5" value="deleteUser()" style="html=1;verticalAlign=bottom;endArrow=block;curved=0;rounded=0;fontSize=14;" edge="1" parent="1">
          <mxGeometry width="80" relative="1" as="geometry">
            <mxPoint x="870" y="500" as="sourcePoint" />
            <mxPoint x="1000" y="500" as="targetPoint" />
            <Array as="points" />
          </mxGeometry>
        </mxCell>
        <mxCell id="d_K1-7DCapt0TSdlmxxZ-6" value="success" style="html=1;verticalAlign=bottom;endArrow=open;dashed=1;endSize=8;curved=0;rounded=0;fontSize=14;" edge="1" parent="1" target="4D1L77DrlI71tNCkj2eW-22">
          <mxGeometry relative="1" as="geometry">
            <mxPoint x="845" y="549" as="targetPoint" />
            <mxPoint x="1000" y="549" as="sourcePoint" />
            <Array as="points">
              <mxPoint x="912" y="549" />
            </Array>
          </mxGeometry>
        </mxCell>
      </root>
    </mxGraphModel>
  </diagram>
  <diagram id="arjFcJ0x_Zhz799nT1eS" name="Lớp xóa tài khoản">
    <mxGraphModel dx="1360" dy="843" grid="1" gridSize="10" guides="1" tooltips="1" connect="1" arrows="1" fold="1" page="1" pageScale="1" pageWidth="850" pageHeight="1100" math="0" shadow="0">
      <root>
        <mxCell id="0" />
        <mxCell id="1" parent="0" />
        <mxCell id="xVbU8eX_ci4KEk_2Ftl2-2" style="edgeStyle=orthogonalEdgeStyle;rounded=0;orthogonalLoop=1;jettySize=auto;html=1;endArrow=none;startFill=0;fontSize=14;" parent="1" source="xVbU8eX_ci4KEk_2Ftl2-3" target="xVbU8eX_ci4KEk_2Ftl2-6" edge="1">
          <mxGeometry relative="1" as="geometry">
            <mxPoint x="580" y="582" as="targetPoint" />
            <Array as="points">
              <mxPoint x="465" y="671" />
              <mxPoint x="450" y="671" />
            </Array>
          </mxGeometry>
        </mxCell>
        <mxCell id="xVbU8eX_ci4KEk_2Ftl2-3" value="&lt;p style=&quot;margin:0px;margin-top:4px;text-align:center;&quot;&gt;&lt;span style=&quot;background-color: transparent; text-align: left;&quot;&gt;&lt;b&gt;DeleteAccountView&lt;/b&gt;&lt;/span&gt;&lt;/p&gt;&lt;hr style=&quot;border-style:solid;&quot;&gt;&lt;p style=&quot;margin:0px;margin-left:4px;&quot;&gt;&lt;br&gt;&lt;br&gt;&lt;/p&gt;&lt;hr style=&quot;border-style:solid;&quot;&gt;&lt;p style=&quot;margin:0px;margin-left:4px;&quot;&gt;+deleteAccount() void&lt;/p&gt;&lt;p style=&quot;margin:0px;margin-left:4px;&quot;&gt;+showSuccess()&lt;/p&gt;" style="verticalAlign=top;align=left;overflow=fill;html=1;whiteSpace=wrap;fontSize=14;" parent="1" vertex="1">
          <mxGeometry x="320" y="732" width="290" height="208" as="geometry" />
        </mxCell>
        <mxCell id="xVbU8eX_ci4KEk_2Ftl2-4" value="1" style="text;html=1;align=center;verticalAlign=middle;resizable=0;points=[];autosize=1;strokeColor=none;fillColor=none;fontSize=14;" parent="1" vertex="1">
          <mxGeometry x="430" y="702" width="30" height="30" as="geometry" />
        </mxCell>
        <mxCell id="xVbU8eX_ci4KEk_2Ftl2-5" style="edgeStyle=orthogonalEdgeStyle;rounded=0;orthogonalLoop=1;jettySize=auto;html=1;endArrow=none;startFill=0;fontSize=14;" parent="1" source="xVbU8eX_ci4KEk_2Ftl2-6" target="xVbU8eX_ci4KEk_2Ftl2-8" edge="1">
          <mxGeometry relative="1" as="geometry" />
        </mxCell>
        <mxCell id="xVbU8eX_ci4KEk_2Ftl2-6" value="&lt;p style=&quot;margin:0px;margin-top:4px;text-align:center;&quot;&gt;&lt;b&gt;DeleteAccountController&lt;/b&gt;&lt;/p&gt;&lt;hr style=&quot;border-style:solid;&quot;&gt;&lt;p style=&quot;margin:0px;margin-left:4px;&quot;&gt;&lt;br&gt;&lt;br&gt;&lt;/p&gt;&lt;hr style=&quot;border-style:solid;&quot;&gt;&lt;p style=&quot;margin:0px;margin-left:4px;&quot;&gt;+deleteAccount() boolean&lt;/p&gt;&lt;p style=&quot;margin:0px;margin-left:4px;&quot;&gt;&lt;br&gt;&lt;/p&gt;" style="verticalAlign=top;align=left;overflow=fill;html=1;whiteSpace=wrap;fontSize=14;" parent="1" vertex="1">
          <mxGeometry x="410" y="400" width="250" height="210" as="geometry" />
        </mxCell>
        <mxCell id="xVbU8eX_ci4KEk_2Ftl2-7" value="1" style="text;html=1;align=center;verticalAlign=middle;resizable=0;points=[];autosize=1;strokeColor=none;fillColor=none;fontSize=14;" parent="1" vertex="1">
          <mxGeometry x="450" y="610" width="30" height="30" as="geometry" />
        </mxCell>
        <mxCell id="xVbU8eX_ci4KEk_2Ftl2-8" value="&lt;p style=&quot;margin:0px;margin-top:4px;text-align:center;&quot;&gt;&lt;b&gt;UserSubsystem&lt;/b&gt;&lt;/p&gt;&lt;hr style=&quot;border-style:solid;&quot;&gt;&lt;p style=&quot;margin:0px;margin-left:4px;&quot;&gt;&lt;br&gt;&lt;br&gt;&lt;/p&gt;&lt;hr style=&quot;border-style:solid;&quot;&gt;&lt;p style=&quot;margin:0px;margin-left:4px;&quot;&gt;+deleteUser(user: User) boolean&lt;/p&gt;" style="verticalAlign=top;align=left;overflow=fill;html=1;whiteSpace=wrap;fontSize=14;" parent="1" vertex="1">
          <mxGeometry x="930" y="412" width="230" height="210" as="geometry" />
        </mxCell>
        <mxCell id="xVbU8eX_ci4KEk_2Ftl2-9" value="1" style="text;html=1;align=center;verticalAlign=middle;resizable=0;points=[];autosize=1;strokeColor=none;fillColor=none;fontSize=14;" parent="1" vertex="1">
          <mxGeometry x="660" y="480" width="30" height="30" as="geometry" />
        </mxCell>
        <mxCell id="xVbU8eX_ci4KEk_2Ftl2-10" value="1" style="text;html=1;align=center;verticalAlign=middle;resizable=0;points=[];autosize=1;strokeColor=none;fillColor=none;fontSize=14;" parent="1" vertex="1">
          <mxGeometry x="905" y="490" width="30" height="30" as="geometry" />
        </mxCell>
      </root>
    </mxGraphModel>
  </diagram>
  <diagram id="NmQLTvky3hiN2hj69lIO" name="Chọn ngôn ngữ">
    <mxGraphModel dx="1368" dy="838" grid="1" gridSize="10" guides="1" tooltips="1" connect="1" arrows="1" fold="1" page="1" pageScale="1" pageWidth="850" pageHeight="1100" math="0" shadow="0">
      <root>
        <mxCell id="0" />
        <mxCell id="1" parent="0" />
        <mxCell id="U_Bojk41DI5Wg-vQri-F-1" value="User" style="shape=umlActor;verticalLabelPosition=bottom;verticalAlign=top;html=1;fontSize=14;" vertex="1" parent="1">
          <mxGeometry x="380" y="182" width="30" height="60" as="geometry" />
        </mxCell>
        <mxCell id="U_Bojk41DI5Wg-vQri-F-2" value="" style="endArrow=none;dashed=1;html=1;rounded=0;fontSize=14;" edge="1" parent="1">
          <mxGeometry width="50" height="50" relative="1" as="geometry">
            <mxPoint x="395" y="530" as="sourcePoint" />
            <mxPoint x="395" y="270" as="targetPoint" />
          </mxGeometry>
        </mxCell>
        <mxCell id="U_Bojk41DI5Wg-vQri-F-3" value="" style="html=1;points=[[0,0,0,0,5],[0,1,0,0,-5],[1,0,0,0,5],[1,1,0,0,-5]];perimeter=orthogonalPerimeter;outlineConnect=0;targetShapes=umlLifeline;portConstraint=eastwest;newEdgeStyle={&quot;curved&quot;:0,&quot;rounded&quot;:0};fontSize=14;" vertex="1" parent="1">
          <mxGeometry x="390" y="280" width="10" height="220" as="geometry" />
        </mxCell>
        <mxCell id="U_Bojk41DI5Wg-vQri-F-5" value="" style="endArrow=none;dashed=1;html=1;rounded=0;fontSize=14;" edge="1" parent="1">
          <mxGeometry width="50" height="50" relative="1" as="geometry">
            <mxPoint x="580" y="530" as="sourcePoint" />
            <mxPoint x="580" y="270" as="targetPoint" />
          </mxGeometry>
        </mxCell>
        <mxCell id="U_Bojk41DI5Wg-vQri-F-6" value="" style="html=1;points=[[0,0,0,0,5],[0,1,0,0,-5],[1,0,0,0,5],[1,1,0,0,-5]];perimeter=orthogonalPerimeter;outlineConnect=0;targetShapes=umlLifeline;portConstraint=eastwest;newEdgeStyle={&quot;curved&quot;:0,&quot;rounded&quot;:0};fontSize=14;" vertex="1" parent="1">
          <mxGeometry x="575" y="280" width="10" height="220" as="geometry" />
        </mxCell>
        <mxCell id="U_Bojk41DI5Wg-vQri-F-7" value="chooseLanguage()" style="html=1;verticalAlign=bottom;endArrow=block;curved=0;rounded=0;fontSize=14;" edge="1" parent="1" source="U_Bojk41DI5Wg-vQri-F-3" target="U_Bojk41DI5Wg-vQri-F-6">
          <mxGeometry width="80" relative="1" as="geometry">
            <mxPoint x="540" y="430" as="sourcePoint" />
            <mxPoint x="620" y="430" as="targetPoint" />
            <Array as="points">
              <mxPoint x="470" y="310" />
            </Array>
          </mxGeometry>
        </mxCell>
        <mxCell id="U_Bojk41DI5Wg-vQri-F-11" value="" style="endArrow=none;dashed=1;html=1;rounded=0;fontSize=14;" edge="1" parent="1">
          <mxGeometry width="50" height="50" relative="1" as="geometry">
            <mxPoint x="740" y="530" as="sourcePoint" />
            <mxPoint x="740" y="270" as="targetPoint" />
          </mxGeometry>
        </mxCell>
        <mxCell id="U_Bojk41DI5Wg-vQri-F-12" value="changeLanguage()" style="html=1;verticalAlign=bottom;endArrow=block;curved=0;rounded=0;fontSize=14;" edge="1" parent="1" target="U_Bojk41DI5Wg-vQri-F-13">
          <mxGeometry width="80" relative="1" as="geometry">
            <mxPoint x="587" y="332" as="sourcePoint" />
            <mxPoint x="692" y="332" as="targetPoint" />
            <Array as="points">
              <mxPoint x="672" y="332" />
            </Array>
          </mxGeometry>
        </mxCell>
        <mxCell id="U_Bojk41DI5Wg-vQri-F-13" value="" style="html=1;points=[[0,0,0,0,5],[0,1,0,0,-5],[1,0,0,0,5],[1,1,0,0,-5]];perimeter=orthogonalPerimeter;outlineConnect=0;targetShapes=umlLifeline;portConstraint=eastwest;newEdgeStyle={&quot;curved&quot;:0,&quot;rounded&quot;:0};fontSize=14;" vertex="1" parent="1">
          <mxGeometry x="737" y="310" width="10" height="120" as="geometry" />
        </mxCell>
        <mxCell id="U_Bojk41DI5Wg-vQri-F-14" value="success" style="html=1;verticalAlign=bottom;endArrow=open;dashed=1;endSize=8;curved=0;rounded=0;fontSize=14;" edge="1" parent="1">
          <mxGeometry relative="1" as="geometry">
            <mxPoint x="585" y="420" as="targetPoint" />
            <mxPoint x="735" y="420" as="sourcePoint" />
            <Array as="points">
              <mxPoint x="656" y="420" />
            </Array>
          </mxGeometry>
        </mxCell>
        <mxCell id="U_Bojk41DI5Wg-vQri-F-15" value="displayLanguage()" style="html=1;verticalAlign=bottom;endArrow=block;curved=0;rounded=0;fontSize=14;" edge="1" parent="1">
          <mxGeometry width="80" relative="1" as="geometry">
            <mxPoint x="575" y="470" as="sourcePoint" />
            <mxPoint x="400" y="470" as="targetPoint" />
            <Array as="points" />
          </mxGeometry>
        </mxCell>
        <mxCell id="U_Bojk41DI5Wg-vQri-F-16" value="&lt;span style=&quot;font-size: 14px;&quot;&gt;:LanguageView&lt;/span&gt;" style="html=1;whiteSpace=wrap;" vertex="1" parent="1">
          <mxGeometry x="525" y="210" width="110" height="50" as="geometry" />
        </mxCell>
        <mxCell id="U_Bojk41DI5Wg-vQri-F-17" value="&lt;span style=&quot;font-size: 14px;&quot;&gt;:LanguageController&lt;/span&gt;" style="html=1;whiteSpace=wrap;" vertex="1" parent="1">
          <mxGeometry x="665.5" y="210" width="153" height="50" as="geometry" />
        </mxCell>
      </root>
    </mxGraphModel>
  </diagram>
  <diagram id="2I2V1dpXpO3-MJ-5gcCd" name="Lớp chọn ngôn ngữ">
    <mxGraphModel dx="1362" dy="843" grid="1" gridSize="10" guides="1" tooltips="1" connect="1" arrows="1" fold="1" page="1" pageScale="1" pageWidth="850" pageHeight="1100" math="0" shadow="0">
      <root>
        <mxCell id="0" />
        <mxCell id="1" parent="0" />
        <mxCell id="l4Ab_z21DlRSzmBGJNAJ-10" style="edgeStyle=orthogonalEdgeStyle;rounded=0;orthogonalLoop=1;jettySize=auto;html=1;endArrow=none;startFill=0;" parent="1" source="l4Ab_z21DlRSzmBGJNAJ-2" target="l4Ab_z21DlRSzmBGJNAJ-5" edge="1">
          <mxGeometry relative="1" as="geometry" />
        </mxCell>
        <mxCell id="l4Ab_z21DlRSzmBGJNAJ-2" value="&lt;p style=&quot;margin: 4px 0px 0px; text-align: center;&quot;&gt;&lt;span style=&quot;background-color: transparent; text-align: left;&quot;&gt;&lt;b&gt;LanguageView&lt;/b&gt;&lt;/span&gt;&lt;/p&gt;&lt;hr style=&quot;border-style:solid;&quot;&gt;&lt;p style=&quot;margin:0px;margin-left:4px;&quot;&gt;&lt;br&gt;&lt;br&gt;&lt;/p&gt;&lt;hr style=&quot;border-style:solid;&quot;&gt;&lt;p style=&quot;margin:0px;margin-left:4px;&quot;&gt;+chooseLanguage() void&lt;/p&gt;&lt;p style=&quot;margin:0px;margin-left:4px;&quot;&gt;+displayLanguage() void&lt;/p&gt;" style="verticalAlign=top;align=left;overflow=fill;html=1;whiteSpace=wrap;fontSize=14;" parent="1" vertex="1">
          <mxGeometry x="520" y="792" width="290" height="208" as="geometry" />
        </mxCell>
        <mxCell id="l4Ab_z21DlRSzmBGJNAJ-5" value="&lt;p style=&quot;margin:0px;margin-top:4px;text-align:center;&quot;&gt;&lt;b&gt;LanguageController&lt;/b&gt;&lt;/p&gt;&lt;hr style=&quot;border-style:solid;&quot;&gt;&lt;p style=&quot;margin:0px;margin-left:4px;&quot;&gt;&lt;br&gt;&lt;br&gt;&lt;/p&gt;&lt;hr style=&quot;border-style:solid;&quot;&gt;&lt;p style=&quot;margin:0px;margin-left:4px;&quot;&gt;+changeLanguage() void&lt;/p&gt;&lt;p style=&quot;margin:0px;margin-left:4px;&quot;&gt;&lt;br&gt;&lt;/p&gt;" style="verticalAlign=top;align=left;overflow=fill;html=1;whiteSpace=wrap;fontSize=14;" parent="1" vertex="1">
          <mxGeometry x="1100" y="770" width="250" height="210" as="geometry" />
        </mxCell>
        <mxCell id="l4Ab_z21DlRSzmBGJNAJ-11" value="1" style="text;html=1;align=center;verticalAlign=middle;resizable=0;points=[];autosize=1;strokeColor=none;fillColor=none;" parent="1" vertex="1">
          <mxGeometry x="805" y="868" width="30" height="30" as="geometry" />
        </mxCell>
        <mxCell id="l4Ab_z21DlRSzmBGJNAJ-12" value="1" style="text;html=1;align=center;verticalAlign=middle;resizable=0;points=[];autosize=1;strokeColor=none;fillColor=none;" parent="1" vertex="1">
          <mxGeometry x="1075" y="848" width="30" height="30" as="geometry" />
        </mxCell>
      </root>
    </mxGraphModel>
  </diagram>
</mxfile>
